SplineFontDB: 3.0
FontName: Rammetto
FullName: Rammetto
FamilyName: Rammetto
Weight: Normal
Copyright: Copyright (c) 2011 by Vernon Adams. All rights reserved.
UComments: "autokern +AD0A 100, min 21 / autometrics+AD0A 60 60, greatly " 
Version: 1.000
FONDName: Rammetto
ItalicAngle: 0
UnderlinePosition: -205
UnderlineWidth: 102
Ascent: 1638
Descent: 410
UFOAscent: 1683
UFODescent: -326
LayerCount: 2
Layer: 0 0 "Back"  1
Layer: 1 0 "Fore"  0
FSType: 0
OS2Version: 0
OS2_WeightWidthSlopeOnly: 0
OS2_UseTypoMetrics: 0
CreationTime: 1328301211
ModificationTime: 1328341177
PfmFamily: 0
TTFWeight: 0
TTFWidth: 0
LineGap: 0
VLineGap: 0
Panose: 2 0 5 5 2 0 0 2 0 4
OS2TypoAscent: 2437
OS2TypoAOffset: 0
OS2TypoDescent: -1022
OS2TypoDOffset: 0
OS2TypoLinegap: 0
OS2WinAscent: 2437
OS2WinAOffset: 0
OS2WinDescent: -1022
OS2WinDOffset: 0
HheadAscent: 2437
HheadAOffset: 0
HheadDescent: -1022
HheadDOffset: 0
OS2SubXSize: 1434
OS2SubYSize: 1331
OS2SubXOff: 0
OS2SubYOff: 287
OS2SupXSize: 1434
OS2SupYSize: 1331
OS2SupXOff: 0
OS2SupYOff: 977
OS2StrikeYSize: 102
OS2StrikeYPos: 512
OS2FamilyClass: 2063
OS2Vendor: 'newt'
OS2CodePages: 00000000.00000000
OS2UnicodeRanges: 00000000.00000000.00000000.00000000
Lookup: 6 0 0 "chainings"  {"and-chain"  } ['dlig' ('DFLT' <'dflt' > 'latn' <'dflt' > ) ]
Lookup: 4 0 0 "altLigas"  {"and"  } ['    ' ('DFLT' <'dflt' > 'latn' <'dflt' > ) ]
Lookup: 258 0 0 "'kern' Horizontal Kerning in Latin lookup 0"  {"'kern' Horizontal Kerning in Latin lookup 0 subtable"  "'kern' Horizontal Kerning lookup 1 kerning class 1" [170,0,0] } ['kern' ('latn' <'dflt' > ) ]
MarkAttachClasses: 1
DEI: 91125
KernClass2: 32 24 "'kern' Horizontal Kerning lookup 1 kerning class 1" 
 66 A Aacute Acircumflex Adieresis Agrave Aring Atilde uni0200 uni0202
 1 B
 36 C Cacute Ccaron Ccedilla Ccircumflex
 8 D Dcaron
 72 E Eacute Ecaron Ecircumflex Edieresis Edoublegrave Egrave Einvertedbreve
 1 K
 15 L Lacute Lcaron
 22 N Nacute Ncaron Ntilde

StartChar: A
Encoding: 48 65 2
Width: 2136
VWidth: 0
Flags: W
LayerCount: 2
Fore
SplineSet
1047 1554 m 0,0,-1
741 0 m 1,1,-1
 795 158 l 1,2,-1
 1227 158 l 1,3,-1
 1290 0 l 1,4,-1
 2101 0 l 1,5,-1
 1249 1522 l 2,6,-1
 1207 1597 1125 1632 1046 1632 c 0,9,-1
 958 1632 867 1589 829 1516 c 2,12,-1
 35 0 l 1,13,-1
 741 0 l 1,1,-1
1014 907 m 1,14,-1
 1167 475 l 1,15,-1
 844 475 l 1,16,-1
 1014 907 l 1,14,-1
EndSplineSet
EndChar

StartChar: AE
Encoding: 148 198 3
Width: 2439
VWidth: 0
Flags: W
LayerCount: 2
Fore
SplineSet
23 0 m 1
 674 0 l 1
 745 123 l 1
 1153 123 l 1
 1153 0 l 1
 2380 0 l 1
 2380 444 l 1
 1825 444 l 1
 1825 618 l 1
 2349 618 l 1
 2349 1001 l 1
 1825 1001 l 1
 1825 1155 l 1
 2349 1155 l 1
 2349 1597 l 1
 1114 1597 l 1
 23 0 l 1
1153 494 m 1
 930 494 l 1
 1153 920 l 1
 1153 494 l 1
EndSplineSet
EndChar

StartChar: B
Encoding: 49 66 10
Width: 1828
VWidth: 0
Flags: W
HStem: 1225 397<805.394 1033.35>
VStem: 1047 618<1084.76 1364> 1100 665<233.5 692.336>
LayerCount: 2
Fore
SplineSet
80 4 m 1xc0
 199 -4 752 -23 870 -23 c 0
 1229 -23 1765 0 1765 467 c 0xa0
 1765 770 1597 879 1432 936 c 1
 1589 1008 1665 1102 1665 1249 c 0
 1665 1479 1468 1622 875 1622 c 0
 610 1622 80 1597 80 1597 c 1
 80 4 l 1xc0
1100 621 m 0
 1100 480 965 430 757 352 c 0
 740 346 723 339 705 332 c 1
 705 584 l 1
 774 618 911 705 1001 705 c 0
 1057 705 1100 682 1100 621 c 0
705 1126 m 1
 711 1130 854 1225 946 1225 c 0
 991 1225 1047 1198 1047 1139 c 0xc0
 1047 1004 875 932 705 866 c 1
 705 1126 l 1
EndSplineSet
EndChar

StartChar: C
Encoding: 50 67 11
Width: 1486
VWidth: 0
Flags: W
HStem: -39 547<927.639 1188.34> 1102 540<750.5 1372.02>
VStem: 65 805<565.059 893.75>
LayerCount: 2
Fore
SplineSet
899 1554 m 0,0,-1
930 0 m 0,1,-1
1417 698 m 1,2,-1
 1171 518 1089 508 1028 508 c 0,5,-1
 924 508 870 590 870 727 c 0,8,-1
 870 934 1044 1102 1251 1102 c 0,11,-1
 1294 1102 1341 1094 1386 1077 c 1,14,-1
 1386 1593 l 1,15,-1
 1280 1632 1118 1642 1038 1642 c 0,18,-1
 463 1642 65 1276 65 745 c 0,21,-1
 65 244 502 -39 956 -39 c 0,24,-1
 1120 -39 1276 -10 1417 47 c 1,27,-1
 1417 698 l 1,2,-1
EndSplineSet
EndChar

StartChar: D
Encoding: 51 68 17
Width: 1760
VWidth: 0
Flags: W
HStem: 1174 468<743.915 960.249>
VStem: 1055 637<769.871 1081.87>
LayerCount: 2
Fore
SplineSet
793 1555 m 0,0,-1
80 0 m 1,1,-1
 846 0 l 2,2,-1
 1327 0 1692 295 1692 797 c 0,5,-1
 1692 1200 1450 1642 928 1642 c 0,8,-1
 645 1642 80 1597 80 1597 c 1,11,-1
 80 0 l 1,1,-1
702 1090 m 1,12,-1
 741 1135 797 1174 858 1174 c 0,15,-1
 985 1174 1055 1038 1055 928 c 0,18,-1
 1055 707 844 602 702 481 c 1,21,-1
 702 1090 l 1,12,-1
EndSplineSet
EndChar

StartChar: E
Encoding: 52 69 24
Width: 1339
VWidth: 0
Flags: W
LayerCount: 2
Fore
SplineSet
662 1554 m 0,0,-1
80 0 m 1,1,-1
 1266 0 l 1,2,-1
 1266 463 l 1,3,-1
 702 463 l 1,4,-1
 702 614 l 1,5,-1
 1229 614 l 1,6,-1
 1229 1006 l 1,7,-1
 702 1006 l 1,8,-1
 702 1137 l 1,9,-1
 1231 1137 l 1,10,-1
 1231 1597 l 1,11,-1
 80 1597 l 1,12,-1
 80 0 l 1,1,-1
EndSplineSet
EndChar

StartChar: Eth
Encoding: 158 208 32
Width: 1812
VWidth: 0
Flags: W
LayerCount: 2
Fore
SplineSet
123 0 m 1
 889 0 l 2
 1370 0 1735 295 1735 797 c 0
 1735 1200 1493 1642 971 1642 c 0
 688 1642 123 1597 123 1597 c 1
 123 983 l 1
 49 983 l 1
 49 748 l 1
 123 748 l 1
 123 0 l 1
745 1090 m 1
 784 1135 840 1174 901 1174 c 0
 1028 1174 1098 1038 1098 928 c 0
 1098 707 887 602 745 481 c 1
 745 748 l 1
 922 748 l 1
 922 983 l 1
 745 983 l 1
 745 1090 l 1
EndSplineSet
EndChar

StartChar: Euro
Encoding: 221 8364 33
Width: 1663
VWidth: 0
Flags: W
LayerCount: 2
Fore
SplineSet
33 901 m 1
 211 901 l 1
 205 860 203 819 201 776 c 1
 33 776 l 1
 33 643 l 1
 207 643 l 1
 258 178 668 -68 1092 -68 c 0
 1255 -68 1411 -37 1552 18 c 1
 1552 535 l 1
 1446 479 1343 449 1253 449 c 0
 1120 449 1014 512 969 643 c 1
 1419 643 l 1
 1419 776 l 1
 944 776 l 1
 944 809 l 2
 944 840 948 870 954 901 c 1
 1419 901 l 1
 1419 1034 l 1
 1014 1034 l 1
 1094 1149 1233 1223 1382 1223 c 0
 1427 1223 1475 1214 1522 1200 c 1
 1522 1624 l 1
 1415 1663 1253 1673 1174 1673 c 0
 705 1673 354 1425 240 1034 c 1
 33 1034 l 1
 33 901 l 1
EndSplineSet
EndChar

StartChar: F
Encoding: 53 70 34
Width: 1307
VWidth: 0
Flags: W
LayerCount: 2
Fore
SplineSet
80 0 m 1
 702 0 l 1
 702 561 l 1
 1229 561 l 1
 1229 997 l 1
 702 997 l 1
 702 1145 l 1
 1229 1145 l 1
 1229 1597 l 1
 80 1597 l 1
 80 0 l 1
EndSplineSet
EndChar

StartChar: G
Encoding: 54 71 35
Width: 1691
VWidth: 0
Flags: W
HStem: -39 545<882.564 1098.95> 1145 497<1049.85 1497.24>
VStem: 65 730<598.402 909.492>
LayerCount: 2
Fore
SplineSet
960 1554 m 0,0,-1
1620 762 m 1,1,-1
 1620 762 1618 760 1106 760 c 1,4,-1
 1106 645 1106 569 1104 520 c 1,7,-1
 1081 510 1049 506 1018 506 c 0,10,-1
 879 506 795 608 795 752 c 0,13,-1
 795 938 950 1145 1270 1145 c 0,16,-1
 1354 1145 1444 1130 1542 1100 c 1,19,-1
 1542 1583 l 1,20,-1
 1538 1583 1411 1642 1147 1642 c 0,23,-1
 526 1642 65 1325 65 807 c 0,26,-1
 65 289 494 -39 1065 -39 c 0,29,-1
 1272 -39 1620 20 1620 20 c 1,32,-1
 1620 762 l 1,1,-1
EndSplineSet
EndChar

StartChar: H
Encoding: 55 72 38
Width: 1738
VWidth: 0
Flags: W
LayerCount: 2
Fore
SplineSet
1034 1047 m 1
 702 1020 l 1
 702 1597 l 1
 80 1597 l 1
 80 0 l 1
 702 0 l 1
 702 561 l 1
 1034 590 l 1
 1034 0 l 1
 1657 0 l 1
 1657 1597 l 1
 1034 1597 l 1
 1034 1047 l 1
EndSplineSet
EndChar

StartChar: Hbar
Encoding: 224 294 39
Width: 1823
VWidth: 0
Flags: W
LayerCount: 2
Fore
SplineSet
745 1597 m 1
 123 1597 l 1
 123 0 l 1
 745 0 l 1
 745 561 l 1
 1077 590 l 1
 1077 0 l 1
 1700 0 l 1
 1700 1597 l 1
 1077 1597 l 1
 1077 1426 l 1
 745 1426 l 1
 745 1597 l 1
1077 1047 m 1
 745 1020 l 1
 745 1233 l 1
 1077 1233 l 1
 1077 1047 l 1
EndSplineSet
EndChar

StartChar: I
Encoding: 56 73 40
Width: 794
VWidth: 0
Flags: W
VStem: 86 622
LayerCount: 2
Fore
SplineSet
405 1554 m 0,0,-1
405 0 m 0,1,-1
708 1597 m 1,2,-1
 86 1597 l 1,3,-1
 86 0 l 1,4,-1
 708 0 l 1,5,-1
 708 1597 l 1,2,-1
EndSplineSet
EndChar

StartChar: J
Encoding: 57 74 50
Width: 1603
VWidth: 0
Flags: W
HStem: -39 490<664.275 841.149>
LayerCount: 2
Fore
SplineSet
1158 1554 m 0,0,-1
779 -39 m 0,1,-1
 1203 -39 1533 170 1533 825 c 2,4,-1
 1533 1597 l 1,5,-1
 896 1597 l 1,6,-1
 896 647 l 2,7,-1
 896 526 826 451 754 451 c 0,10,-1
 685 451 621 512 621 641 c 2,13,-1
 621 795 l 1,14,-1
 66 719 l 1,15,-1
 66 567 l 2,16,-1
 66 143 360 -39 779 -39 c 0,1,-1
EndSplineSet
EndChar

StartChar: K
Encoding: 58 75 52
Width: 1853
VWidth: 0
Flags: W
LayerCount: 2
Fore
SplineSet
80 1597 m 1
 80 0 l 1
 727 0 l 1
 727 500 l 1
 764 565 l 1
 1098 0 l 1
 1827 0 l 1
 1231 924 l 1
 1747 1597 l 1
 1098 1597 l 1
 713 1106 l 1
 713 1597 l 1
 80 1597 l 1
EndSplineSet
EndChar

StartChar: L
Encoding: 59 76 53
Width: 1316
VWidth: 0
Flags: W
LayerCount: 2
Fore
SplineSet
402 1555 m 0,0,-1
80 0 m 1,1,-1
 1239 0 l 1,2,-1
 1239 481 l 1,3,-1
 702 481 l 1,4,-1
 702 1597 l 1,5,-1
 80 1597 l 1,6,-1
 80 0 l 1,1,-1
EndSplineSet
EndChar

StartChar: LJ
Encoding: 231 455 54
Width: 2892
VWidth: 0
Flags: W
LayerCount: 2
Fore
SplineSet
123 0 m 1
 1282 0 l 1
 1282 481 l 1
 745 481 l 1
 745 1597 l 1
 123 1597 l 1
 123 0 l 1
2040 -39 m 0
 2464 -39 2794 170 2794 825 c 2
 2794 1597 l 1
 2157 1597 l 1
 2157 647 l 2
 2157 526 2087 451 2015 451 c 0
 1946 451 1882 512 1882 641 c 2
 1882 795 l 1
 1327 719 l 1
 1327 567 l 2
 1327 143 1621 -39 2040 -39 c 0
EndSplineSet
EndChar

StartChar: Lj
Encoding: 235 456 58
Width: 2329
VWidth: 0
Flags: W
LayerCount: 2
Fore
SplineSet
123 0 m 1
 1282 0 l 1
 1282 481 l 1
 745 481 l 1
 745 1597 l 1
 123 1597 l 1
 123 0 l 1
1344 -188 m 1
 1458 -279 1612 -332 1764 -332 c 0
 2015 -332 2224 -168 2224 111 c 2
 2224 1241 l 1
 1626 1241 l 1
 1626 317 l 2
 1626 201 1524 53 1450 53 c 0
 1407 53 1372 59 1346 70 c 1
 1344 -188 l 1
1952 1819 m 0
 1729 1819 1618 1677 1618 1550 c 0
 1618 1444 1692 1346 1897 1346 c 0
 2110 1346 2228 1483 2228 1608 c 0
 2228 1718 2140 1819 1952 1819 c 0
EndSplineSet
EndChar

StartChar: Lslash
Encoding: 236 321 59
Width: 1321
VWidth: 0
Flags: W
LayerCount: 2
Fore
SplineSet
0 541 m 1
 123 584 l 1
 123 0 l 1
 1282 0 l 1
 1282 481 l 1
 745 481 l 1
 745 805 l 1
 928 870 l 1
 928 1241 l 1
 745 1176 l 1
 745 1597 l 1
 123 1597 l 1
 123 954 l 1
 0 911 l 1
 0 541 l 1
EndSplineSet
EndChar

StartChar: M
Encoding: 60 77 60
Width: 2175
VWidth: 0
Flags: W
LayerCount: 2
Fore
SplineSet
80 0 m 1
 633 0 l 1
 633 506 l 1
 1030 70 l 1
 1438 518 l 1
 1438 0 l 1
 2095 0 l 1
 2095 1597 l 1
 1874 1597 l 1
 1081 872 l 1
 309 1597 l 1
 80 1597 l 1
 80 0 l 1
EndSplineSet
EndChar

StartChar: N
Encoding: 61 78 61
Width: 1757
VWidth: 0
Flags: W
LayerCount: 2
Fore
SplineSet
918 1554 m 0,0,-1
80 0 m 1,1,-1
 641 0 l 1,2,-1
 641 549 l 1,3,-1
 1462 0 l 1,4,-1
 1677 0 l 1,5,-1
 1677 1597 l 1,6,-1
 1114 1597 l 1,7,-1
 1114 975 l 1,8,-1
 242 1597 l 1,9,-1
 80 1597 l 1,10,-1
 80 0 l 1,1,-1
EndSplineSet
EndChar

StartChar: O
Encoding: 62 79 68
Width: 1922
VWidth: 0
Flags: W
HStem: -39 520<759.492 977.658> 1159 483<710 1184.49>
VStem: 65 649<535.328 830.87> 1228 629<541 1078.46>
LayerCount: 2
Fore
SplineSet
952 1554 m 0,0,-1
1066 1159 m 0,1,-1
 1183 1159 1228 1090 1228 997 c 0,4,-1
 1228 797 1023 481 882 481 c 0,7,-1
 761 481 714 551 714 647 c 0,10,-1
 714 848 921 1159 1066 1159 c 0,1,-1
952 -39 m 0,13,-1
 1431 -39 1857 285 1857 797 c 0,16,-1
 1857 1325 1459 1642 952 1642 c 0,19,-1
 468 1642 65 1307 65 805 c 0,22,-1
 65 293 501 -39 952 -39 c 0,13,-1
EndSplineSet
EndChar

StartChar: OE
Encoding: 241 338 69
Width: 2363
VWidth: 0
Flags: W
LayerCount: 2
Fore
SplineSet
47 739 m 0
 47 326 375 0 803 0 c 2
 2302 0 l 1
 2302 469 l 1
 1798 469 l 1
 1798 621 l 1
 2281 621 l 1
 2281 1012 l 1
 1798 1012 l 1
 1798 1163 l 1
 2302 1163 l 1
 2302 1599 l 1
 979 1599 l 2
 432 1599 47 1235 47 739 c 0
1049 1159 m 0
 1165 1159 1210 1090 1210 997 c 0
 1210 797 1006 481 864 481 c 0
 743 481 696 551 696 647 c 0
 696 848 903 1159 1049 1159 c 0
EndSplineSet
EndChar

StartChar: Oslash
Encoding: 166 216 75
Width: 1858
VWidth: 0
Flags: W
LayerCount: 2
Fore
SplineSet
950 -39 m 0
 1430 -39 1855 285 1855 797 c 0
 1855 1178 1649 1448 1343 1571 c 1
 1405 1763 l 1
 1262 1804 l 1
 1200 1614 l 1
 1120 1632 1036 1642 950 1642 c 0
 467 1642 63 1307 63 805 c 0
 63 422 305 139 616 20 c 1
 551 -184 l 1
 694 -225 l 1
 762 -18 l 1
 823 -31 887 -39 950 -39 c 0
1065 1159 m 0
 1182 1159 1227 1090 1227 997 c 0
 1227 797 1022 481 881 481 c 0
 760 481 713 551 713 647 c 0
 713 848 920 1159 1065 1159 c 0
EndSplineSet
EndChar

StartChar: P
Encoding: 63 80 77
Width: 1731
VWidth: 0
Flags: W
HStem: 1227 415<851.764 1069.23>
VStem: 1094 569<951.935 1196.13>
LayerCount: 2
Fore
SplineSet
875 1642 m 0
 651 1642 391 1624 80 1593 c 1
 80 0 l 1
 733 0 l 1
 733 289 l 1
 803 289 858 285 911 285 c 0
 1327 285 1663 575 1663 991 c 0
 1663 1456 1432 1642 875 1642 c 0
981 1227 m 0
 1053 1227 1094 1169 1094 1102 c 0
 1094 946 981 854 846 788 c 2
 729 731 l 1
 729 1108 l 1
 729 1108 887 1227 981 1227 c 0
EndSplineSet
EndChar

StartChar: Q
Encoding: 64 81 78
Width: 2053
VWidth: 0
Flags: W
HStem: -39 520<759.175 981.064> -39 447<1788.76 1982.56> 1159 483<709.5 1184.19>
VStem: 65 649<535.328 830.87> 1228 629<732.5 1078.46>
LayerCount: 2
Fore
SplineSet
951 -39 m 0xb8
 1138 -39 1318 10 1467 101 c 1
 1600 15 1742 -39 1894 -39 c 0
 1922 -39 1955 -37 1986 -33 c 1
 1986 -33 1984 408 1982 408 c 0x78
 1930 408 1861 422 1782 448 c 1
 1830 551 1857 668 1857 797 c 0
 1857 1325 1459 1642 951 1642 c 0
 468 1642 65 1307 65 805 c 0
 65 293 501 -39 951 -39 c 0xb8
1066 1159 m 0
 1183 1159 1228 1090 1228 997 c 0
 1228 922 1199 832 1156 747 c 1
 1090 787 1024 828 962 870 c 1
 853 707 l 1
 901 650 949 592 998 536 c 1
 958 502 918 481 882 481 c 0xb8
 761 481 714 551 714 647 c 0
 714 848 921 1159 1066 1159 c 0
EndSplineSet
EndChar

StartChar: R
Encoding: 65 82 79
Width: 1835
VWidth: 0
Flags: W
HStem: 1233 409<833.338 1071.85>
VStem: 1092 594<959.957 1214.47>
LayerCount: 2
Fore
SplineSet
772 1554 m 0,0,-1
729 1145 m 1,1,-1
 862 1200 l 2,2,-1
 907 1219 948 1233 987 1233 c 0,5,-1
 1047 1233 1092 1200 1092 1092 c 0,8,-1
 1092 963 987 850 729 754 c 1,11,-1
 729 1145 l 1,1,-1
1014 0 m 1,12,-1
 1804 0 l 1,13,-1
 1370 567 l 1,14,-1
 1554 676 1686 842 1686 1075 c 0,17,-1
 1686 1341 1495 1642 979 1642 c 0,20,-1
 668 1642 80 1597 80 1597 c 1,23,-1
 80 0 l 1,24,-1
 733 0 l 1,25,-1
 733 463 l 1,26,-1
 1014 0 l 1,12,-1
EndSplineSet
EndChar

StartChar: S
Encoding: 66 83 83
Width: 1400
VWidth: 0
Flags: W
HStem: -39 463<286.514 882.5> 1184 458<754.877 1173.08>
LayerCount: 2
Fore
SplineSet
696 1554 m 0,0,-1
674 0 m 0,1,-1
79 530 m 1,2,-1
 79 72 l 1,3,-1
 79 72 198 -39 675 -39 c 0,6,-1
 1090 -39 1335 165 1335 477 c 0,9,-1
 1335 826 1102 935 821 1057 c 0,12,-1
 784 1073 753 1106 753 1130 c 0,15,-1
 753 1159 784 1184 845 1184 c 0,18,-1
 978 1184 1236 1126 1236 1126 c 1,21,-1
 1236 1585 l 1,22,-1
 1200 1595 993 1642 772 1642 c 0,25,-1
 423 1642 75 1509 75 1133 c 0,28,-1
 75 674 626 635 626 485 c 0,31,-1
 626 438 585 424 526 424 c 0,34,-1
 391 424 96 526 79 530 c 1,2,-1
EndSplineSet
EndChar

StartChar: T
Encoding: 67 84 86
Width: 1668
VWidth: 0
Flags: W
LayerCount: 2
Fore
SplineSet
839 1555 m 0,0,-1
78 1079 m 1,1,-1
 523 1079 l 1,2,-1
 523 0 l 1,3,-1
 1145 0 l 1,4,-1
 1145 1079 l 1,5,-1
 1590 1079 l 1,6,-1
 1590 1597 l 1,7,-1
 78 1597 l 1,8,-1
 78 1079 l 1,1,-1
EndSplineSet
EndChar

StartChar: Thorn
Encoding: 172 222 88
Width: 1661
VWidth: 0
Flags: W
LayerCount: 2
Fore
SplineSet
61 0 m 1
 715 0 l 1
 715 207 l 1
 1311 221 1628 539 1628 1020 c 0
 1628 1296 1475 1536 1102 1536 c 0
 995 1536 866 1516 715 1468 c 1
 715 1599 l 1
 61 1599 l 1
 61 0 l 1
948 1116 m 0
 1016 1116 1055 1065 1055 999 c 0
 1055 854 950 764 821 702 c 2
 711 649 l 1
 711 1006 l 1
 711 1006 860 1116 948 1116 c 0
EndSplineSet
EndChar

StartChar: U
Encoding: 68 85 89
Width: 1690
VWidth: 0
Flags: W
HStem: -39 494<770.763 1002.6>
LayerCount: 2
Fore
SplineSet
884 1554 m 0,0,-1
874 0 m 0,1,-1
79 637 m 2,2,-1
 79 178 354 -39 874 -39 c 0,5,-1
 1351 -39 1611 178 1611 637 c 2,8,-1
 1611 1597 l 1,9,-1
 1058 1597 l 1,10,-1
 1058 659 l 2,11,-1
 1058 545 1007 455 884 455 c 0,14,-1
 761 455 710 541 710 655 c 2,17,-1
 710 1597 l 1,18,-1
 79 1597 l 1,19,-1
 79 637 l 2,2,-1
EndSplineSet
EndChar

StartChar: V
Encoding: 69 86 98
Width: 1791
VWidth: 0
Flags: W
LayerCount: 2
Fore
SplineSet
-1 1597 m 1
 826 2 l 2
 843 -31 878 -47 916 -47 c 0
 952 -47 990 -29 1006 2 c 2
 1791 1597 l 1
 1205 1597 l 1
 973 1096 l 1
 724 1597 l 1
 -1 1597 l 1
EndSplineSet
EndChar

StartChar: W
Encoding: 70 87 99
Width: 2536
VWidth: 0
Flags: W
VStem: 1963 572<1025 1597>
LayerCount: 2
Fore
SplineSet
1 1597 m 1
 563 45 l 2
 589 -26 635 -55 685 -55 c 0
 734 -55 785 -22 825 31 c 2
 1306 678 l 1
 1753 33 l 2
 1795 -28 1845 -59 1894 -59 c 0
 1944 -59 1991 -25 2013 41 c 2
 2535 1597 l 1
 1963 1597 l 1
 1783 1034 l 1
 1411 1563 l 2
 1385 1600 1372 1606 1355 1606 c 0
 1337 1606 1327 1599 1300 1563 c 2
 901 1028 l 1
 718 1597 l 1
 1 1597 l 1
EndSplineSet
EndChar

StartChar: X
Encoding: 71 88 100
Width: 1656
VWidth: 0
Flags: HW
LayerCount: 2
Fore
SplineSet
965 0 m 1
 1702 0 l 1
 1184 846 l 1
 1602 1597 l 1
 1043 1597 l 1
 856 1278 l 1
 678 1597 l 1
 -39 1597 l 1
 432 831 l 1
 -4 0 l 1
 592 0 l 1
 774 365 l 1
 965 0 l 1
EndSplineSet
EndChar

StartChar: Y
Encoding: 72 89 101
Width: 1630
VWidth: 0
Flags: W
HStem: 1270 21G<861.275 881.031>
LayerCount: 2
Fore
SplineSet
871 1554 m 0,0,-1
486 0 m 1,1,-1
 1134 0 l 1,2,-1
 1134 623 l 1,3,-1
 1631 1597 l 1,4,-1
 1035 1597 l 1,5,-1
 871 1270 l 1,6,-1
 712 1597 l 1,7,-1
 -1 1597 l 1,8,-1
 486 623 l 1,9,-1
 486 0 l 1,1,-1
EndSplineSet
EndChar

StartChar: Z
Encoding: 73 90 104
Width: 1662
VWidth: 0
Flags: HW
LayerCount: 2
Fore
SplineSet
855 1554 m 0
16 92 m 1,1,-1
 16 0 l 1,2,-1
 1633 0 l 1,3,-1
 1633 457 l 1,4,-1
 1017 457 l 1,5,-1
 1633 1475 l 1,6,-1
 1633 1597 l 1,7,-1
 77 1597 l 1,8,-1
 77 1114 l 1,9,-1
 628 1114 l 1,10,-1
 16 92 l 1,1,-1
EndSplineSet
EndChar

StartChar: a
Encoding: 80 97 106
Width: 1645
VWidth: 0
Flags: W
HStem: -37 416<482 854.488> 887 403<559 975.5>
VStem: 56 596<401.443 669.13>
LayerCount: 2
Fore
SplineSet
879 1243 m 0,0,-1
56 565 m 0,1,-1
 56 156 330 -37 634 -37 c 0,4,-1
 818 -37 1006 55 1109 207 c 1,7,-1
 1252 0 l 1,8,-1
 1580 0 l 1,9,-1
 1580 1243 l 1,10,-1
 1252 1243 l 1,11,-1
 1109 1090 l 1,12,-1
 1027 1217 879 1290 736 1290 c 0,15,-1
 382 1290 56 1001 56 565 c 0,1,-1
652 516 m 0,18,-1
 652 678 811 887 962 887 c 0,21,-1
 989 887 1016 881 1041 866 c 1,24,-1
 1041 512 l 1,25,-1
 928 416 816 379 750 379 c 0,28,-1
 681 379 652 451 652 516 c 0,18,-1
EndSplineSet
EndChar

StartChar: acute
Encoding: 130 180 109
Width: 625
VWidth: 0
Flags: W
LayerCount: 2
Fore
SplineSet
70 680 m 0
184 1477 m 1,1,-1
 41 978 l 2,2,3
 35 957 33 939 33 924 c 0,4,5
 33 890 47 869 70 869 c 0,6,7
 94 869 125 893 162 939 c 2,8,-1
 592 1477 l 1,9,-1
 184 1477 l 1,1,-1
EndSplineSet
EndChar

StartChar: ae
Encoding: 180 230 111
Width: 2468
VWidth: 0
Flags: W
LayerCount: 2
Fore
SplineSet
1815 1292 m 0
 1620 1292 1432 1237 1288 1126 c 1
 1188 1239 928 1290 836 1290 c 0
 440 1290 74 1001 74 565 c 0
 74 156 348 -37 651 -37 c 0
 778 -37 936 0 1159 176 c 1
 1284 35 1477 -37 1669 -37 c 0
 1929 -37 2185 20 2343 156 c 1
 2281 467 l 1
 2124 332 1921 301 1839 301 c 0
 1747 301 1642 307 1642 434 c 1
 1673 432 1722 432 1747 432 c 0
 2148 432 2365 662 2365 885 c 0
 2365 1090 2202 1292 1815 1292 c 0
629 516 m 0
 629 678 788 887 939 887 c 0
 966 887 993 881 1018 866 c 1
 1018 512 l 1
 905 416 793 379 727 379 c 0
 657 379 629 451 629 516 c 0
1800 975 m 1
 1851 975 1882 948 1882 887 c 0
 1882 879 1880 872 1880 864 c 2
 1862 711 l 1
 1642 662 l 1
 1671 831 1657 963 1800 975 c 1
EndSplineSet
EndChar

StartChar: ampersand
Encoding: 21 38 114
Width: 2241
VWidth: 0
Flags: W
LayerCount: 2
Fore
SplineSet
1202 1266 m 0
 1202 1192 1067 1143 1040 1126 c 1
 985 1190 l 2
 962 1216 952 1242 952 1260 c 0
 952 1317 1018 1356 1075 1356 c 0
 1151 1356 1202 1327 1202 1266 c 0
66 502 m 0
 66 129 426 -37 760 -37 c 0
 958 -37 1102 -4 1257 102 c 1
 1350 0 l 1
 2187 0 l 1
 2187 139 l 1
 1978 180 1872 254 1729 389 c 1
 1907 485 2189 825 2189 1010 c 1
 1718 1137 l 1
 1645 977 1499 834 1370 739 c 1
 1223 909 l 1
 1257 942 1567 1075 1567 1294 c 0
 1567 1552 1251 1640 1040 1640 c 0
 774 1640 487 1524 487 1276 c 0
 487 1212 508 1141 551 1059 c 1
 483 1026 66 930 66 502 c 0
772 733 m 1
 977 481 l 1
 930 449 829 432 797 432 c 0
 709 432 659 498 659 569 c 0
 659 631 694 696 772 733 c 1
EndSplineSet
EndChar

StartChar: asciicircum
Encoding: 77 94 116
Width: 819
VWidth: 0
Flags: W
LayerCount: 2
Fore
SplineSet
63 1464 m 2
 51 1439 47 1416 47 1401 c 0
 47 1378 59 1366 78 1366 c 0
 103 1366 144 1388 184 1425 c 2
 410 1632 l 1
 637 1425 l 2
 676 1389 717 1366 743 1366 c 0
 762 1366 772 1378 772 1401 c 0
 772 1417 769 1438 758 1464 c 1
 553 1882 l 2
 522 1944 463 1972 412 1972 c 0
 357 1972 296 1939 268 1882 c 2
 63 1464 l 2
EndSplineSet
EndChar

StartChar: asciitilde
Encoding: 109 126 117
Width: 1098
VWidth: 0
Flags: W
LayerCount: 2
Fore
SplineSet
238 1427 m 0
 399 1427 614 1321 776 1321 c 0
 911 1321 1012 1397 1012 1669 c 0
 1012 1677 1006 1686 995 1686 c 0
 973 1686 928 1624 852 1624 c 0
 711 1624 494 1729 326 1729 c 0
 184 1729 78 1655 78 1384 c 0
 78 1376 86 1368 96 1368 c 0
 117 1368 164 1427 238 1427 c 0
EndSplineSet
EndChar

StartChar: asterisk
Encoding: 25 42 118
Width: 1522
VWidth: 0
Flags: W
LayerCount: 2
Fore
SplineSet
850 1176 m 1
 877 1296 938 1446 938 1575 c 0
 938 1679 874 1755 760 1755 c 0
 645 1755 584 1679 584 1575 c 0
 584 1448 641 1300 670 1176 c 1
 672 1161 674 1149 678 1137 c 1
 649 1163 l 2
 526 1273 395 1466 246 1466 c 0
 172 1466 74 1393 74 1280 c 0
 74 1077 457 1047 616 993 c 1
 457 940 74 911 74 707 c 0
 74 594 172 522 246 522 c 0
 395 522 524 719 649 825 c 1
 684 858 l 1
 657 748 584 555 584 416 c 0
 584 311 645 233 760 233 c 0
 874 233 938 311 938 416 c 0
 938 541 874 686 850 813 c 1
 840 854 l 1
 872 825 l 1
 993 719 1135 522 1276 522 c 0
 1352 522 1448 602 1448 713 c 0
 1448 905 1069 954 913 993 c 1
 1081 1057 1448 1071 1448 1276 c 0
 1448 1386 1352 1464 1276 1464 c 0
 1140 1464 987 1274 872 1163 c 2
 836 1128 l 1
 840 1145 844 1161 850 1176 c 1
EndSplineSet
EndChar

StartChar: at
Encoding: 47 64 119
Width: 2370
VWidth: 0
Flags: W
LayerCount: 2
Fore
SplineSet
2308 729 m 0
 2308 1425 1749 1774 1192 1774 c 0
 633 1774 76 1425 76 729 c 0
 76 76 633 -246 1192 -246 c 0
 1389 -246 1583 -195 1755 -90 c 1
 1667 117 l 1
 1538 43 1380 0 1192 0 c 0
 643 0 373 360 373 735 c 0
 373 1133 649 1532 1192 1532 c 0
 1761 1532 2015 1137 2015 700 c 0
 2015 537 1958 469 1894 469 c 0
 1817 469 1726 518 1726 594 c 2
 1726 1233 l 1
 1464 1233 l 1
 1350 1077 l 1
 1272 1198 1126 1270 985 1270 c 0
 760 1270 567 1073 567 743 c 0
 567 393 768 209 1001 209 c 0
 1153 209 1307 291 1391 424 c 1
 1518 289 1675 225 1823 225 c 0
 2079 225 2308 416 2308 729 c 0
1065 532 m 0
 991 532 973 584 973 635 c 0
 973 793 1178 920 1296 920 c 1
 1296 674 l 1
 1247 602 1149 532 1065 532 c 0
EndSplineSet
EndChar

StartChar: b
Encoding: 81 98 121
Width: 1681
VWidth: 0
Flags: W
HStem: -39 375<664.118 847.374> 844 416<855.673 1245>
VStem: 1049 565<544.103 820.84>
LayerCount: 2
Fore
SplineSet
80 16 m 1
 324 -23 549 -39 723 -39 c 0
 1417 -39 1614 432 1614 657 c 0
 1614 975 1427 1260 1063 1260 c 0
 961 1260 784 1214 662 1096 c 1
 662 1683 l 1
 80 1683 l 1
 80 16 l 1
950 844 m 0
 1022 844 1049 770 1049 707 c 0
 1049 539 893 336 758 336 c 2
 659 336 l 1
 659 713 l 1
 719 760 825 844 950 844 c 0
EndSplineSet
EndChar

StartChar: backslash
Encoding: 75 92 122
Width: 1057
VWidth: 0
Flags: W
LayerCount: 2
Fore
SplineSet
1030 0 m 1
 356 0 l 1
 49 1597 l 1
 580 1597 l 1
 1030 0 l 1
EndSplineSet
EndChar

StartChar: bar
Encoding: 107 124 123
Width: 815
VWidth: 0
Flags: W
LayerCount: 2
Fore
SplineSet
725 1802 m 1
 96 1802 l 1
 162 -205 l 1
 647 -205 l 1
 725 1802 l 1
EndSplineSet
EndChar

StartChar: braceleft
Encoding: 106 123 124
Width: 1044
VWidth: 0
Flags: W
LayerCount: 2
Fore
SplineSet
190 432 m 0
 190 90 403 -143 924 -143 c 1
 924 238 l 1
 752 238 750 379 750 460 c 0
 750 598 655 745 510 784 c 1
 659 825 750 975 750 1114 c 0
 750 1196 752 1333 924 1333 c 1
 924 1714 l 1
 403 1714 190 1481 190 1139 c 0
 190 1034 129 954 33 950 c 1
 33 621 l 1
 129 616 190 537 190 432 c 0
EndSplineSet
EndChar

StartChar: braceright
Encoding: 108 125 125
Width: 1044
VWidth: 0
Flags: W
LayerCount: 2
Fore
SplineSet
856 432 m 0
 856 537 918 616 1014 621 c 1
 1014 950 l 1
 918 954 856 1034 856 1139 c 0
 856 1481 643 1714 123 1714 c 1
 123 1333 l 1
 295 1333 297 1196 297 1114 c 0
 297 975 387 825 537 784 c 1
 387 744 297 594 297 459 c 0
 297 378 295 238 123 238 c 1
 123 -143 l 1
 643 -143 856 90 856 432 c 0
EndSplineSet
EndChar

StartChar: bracketleft
Encoding: 74 91 126
Width: 1188
VWidth: 0
Flags: W
LayerCount: 2
Fore
SplineSet
1067 -37 m 1
 1067 236 l 1
 745 236 l 1
 745 1354 l 1
 1067 1354 l 1
 1067 1640 l 1
 123 1640 l 1
 123 -37 l 1
 1067 -37 l 1
EndSplineSet
EndChar

StartChar: bracketright
Encoding: 76 93 127
Width: 1188
VWidth: 0
Flags: W
LayerCount: 2
Fore
SplineSet
1067 -37 m 1
 1067 1640 l 1
 123 1640 l 1
 123 1354 l 1
 444 1354 l 1
 444 236 l 1
 123 236 l 1
 123 -37 l 1
 1067 -37 l 1
EndSplineSet
EndChar

StartChar: breve
Encoding: 256 728 128
Width: 1317
VWidth: 0
Flags: W
LayerCount: 2
Fore
SplineSet
657 680 m 0
842 1465 m 1,1,2
 842 1328 780 1205 657 1205 c 0,3,4
 535 1205 471 1330 471 1472 c 1,5,-1
 41 1472 l 1,6,7
 41 1154 246 855 657 855 c 0,8,9
 1067 855 1274 1150 1274 1465 c 1,10,-1
 842 1465 l 1,1,2
EndSplineSet
EndChar

StartChar: brokenbar
Encoding: 116 166 129
Width: 801
VWidth: 0
Flags: W
LayerCount: 2
Fore
SplineSet
127 918 m 1
 156 1802 l 1
 641 1802 l 1
 676 918 l 1
 127 918 l 1
672 680 m 1
 707 -205 l 1
 98 -205 l 1
 127 680 l 1
 672 680 l 1
EndSplineSet
EndChar

StartChar: bullet
Encoding: 257 8226 130
Width: 760
VWidth: 0
Flags: W
LayerCount: 2
Fore
SplineSet
410 715 m 0
 152 715 -6 506 -6 315 c 0
 -6 133 102 -37 350 -37 c 0
 631 -37 766 166 766 360 c 0
 766 541 649 715 410 715 c 0
EndSplineSet
EndChar

StartChar: c
Encoding: 82 99 131
Width: 1173
VWidth: 0
Flags: W
HStem: -37 416<727.913 960.126> 887 405<603.5 1089.55>
VStem: 56 647<403.138 679.413>
LayerCount: 2
Fore
SplineSet
646 1243 m 0,0,-1
711 0 m 0,1,-1
1112 522 m 1,2,-1
 930 387 862 379 820 379 c 0,5,-1
 767 379 703 395 703 514 c 0,8,-1
 703 707 881 887 1018 887 c 0,11,-1
 1045 887 1072 881 1092 864 c 1,14,-1
 1092 1249 l 1,15,-1
 1008 1282 889 1292 834 1292 c 0,18,-1
 373 1292 56 1008 56 584 c 0,21,-1
 56 178 396 -37 748 -37 c 0,24,-1
 877 -37 1000 -10 1112 33 c 1,27,-1
 1112 522 l 1,2,-1
EndSplineSet
EndChar

StartChar: caron
Encoding: 259 711 133
Width: 786
VWidth: 0
Flags: W
LayerCount: 2
Fore
SplineSet
393 680 m 0
252 989 m 2,1,2
 280 932 341 899 395 899 c 0,3,4
 450 899 507 927 537 989 c 2,5,-1
 741 1407 l 2,6,7
 754 1434 756 1454 756 1470 c 0,8,9
 756 1493 745 1505 727 1505 c 0,10,11
 700 1505 660 1482 621 1446 c 2,12,-1
 393 1239 l 1,13,-1
 168 1446 l 2,14,15
 127 1483 88 1505 61 1505 c 0,16,17
 43 1505 31 1493 31 1470 c 0,18,19
 31 1452 36 1433 47 1407 c 1,20,-1
 252 989 l 2,1,2
EndSplineSet
EndChar

StartChar: cedilla
Encoding: 134 184 137
Width: 709
VWidth: 0
Flags: W
LayerCount: 2
Fore
SplineSet
362 0 m 0
59 -545 m 1,1,2
 135 -596 252 -631 362 -631 c 0,3,4
 514 -631 657 -563 657 -403 c 0,5,6
 657 -218 485 -200 401 -192 c 2,7,-1
 379 -190 l 1,8,-1
 440 0 l 1,9,-1
 303 0 l 1,10,11
 303 0 208 -322 209 -328 c 1,12,13
 297 -328 385 -360 385 -420 c 0,14,15
 385 -469 332 -485 295 -485 c 0,16,17
 190 -485 98 -422 80 -422 c 0,18,19
 49 -422 20 -451 20 -483 c 0,20,21
 20 -502 33 -524 59 -545 c 1,1,2
EndSplineSet
EndChar

StartChar: cent
Encoding: 112 162 138
Width: 1167
VWidth: 0
Flags: W
LayerCount: 2
Fore
SplineSet
623 -205 m 1
 774 -205 l 1
 784 -35 l 1
 891 -27 991 -2 1085 33 c 1
 1085 561 l 1
 879 410 819 401 778 401 c 0
 707 401 668 463 668 569 c 0
 668 745 815 842 971 842 c 0
 1001 842 1034 838 1065 829 c 1
 1065 1249 l 1
 999 1272 913 1284 848 1290 c 1
 858 1452 l 1
 705 1452 l 1
 696 1288 l 1
 297 1251 29 979 29 584 c 0
 29 213 311 2 631 -31 c 1
 623 -205 l 1
EndSplineSet
EndChar

StartChar: circumflex
Encoding: 262 710 139
Width: 819
VWidth: 0
Flags: W
LayerCount: 2
Fore
SplineSet
410 680 m 0
63 1004 m 1,1,2
 51 977 47 956 47 940 c 0,3,4
 47 918 59 905 78 905 c 0,5,6
 104 905 143 928 184 965 c 2,7,-1
 410 1171 l 1,8,-1
 637 965 l 2,9,10
 677 928 716 905 743 905 c 0,11,12
 762 905 772 918 772 940 c 0,13,14
 772 956 771 977 758 1004 c 2,15,-1
 553 1421 l 2,16,17
 522 1483 467 1511 412 1511 c 0,18,19
 356 1511 296 1479 268 1421 c 2,20,-1
 63 1004 l 1,1,2
EndSplineSet
EndChar

StartChar: colon
Encoding: 41 58 140
Width: 717
VWidth: 0
Flags: W
LayerCount: 2
Fore
SplineSet
385 1290 m 0
 195 1290 82 1137 82 1001 c 0
 82 872 156 756 332 756 c 0
 535 756 635 903 635 1042 c 0
 635 1167 549 1290 385 1290 c 0
385 535 m 0
 195 535 82 381 82 246 c 0
 82 119 156 0 332 0 c 0
 535 0 635 147 635 287 c 0
 635 414 549 535 385 535 c 0
EndSplineSet
EndChar

StartChar: comma
Encoding: 27 44 141
Width: 809
VWidth: 0
Flags: W
LayerCount: 2
Fore
SplineSet
123 -465 m 1
 547 -465 731 -285 731 18 c 2
 731 422 l 1
 123 422 l 1
 123 0 l 1
 303 0 l 1
 303 0 303 -207 123 -207 c 1
 123 -465 l 1
EndSplineSet
EndChar

StartChar: commaaccent
Encoding: 263 63171 142
Width: 715
VWidth: 0
Flags: W
LayerCount: 2
Fore
SplineSet
349 0 m 0
54 -1161 m 0
53 -1022 m 1,2,3
 477 -1022 662 -842 662 -539 c 2,4,-1
 662 -135 l 1,5,-1
 53 -135 l 1,6,-1
 53 -557 l 1,7,-1
 233 -557 l 1,8,9
 233 -557 233 -764 53 -764 c 1,10,-1
 53 -1022 l 1,2,3
EndSplineSet
EndChar

StartChar: copyright
Encoding: 119 169 143
Width: 2384
VWidth: 0
Flags: W
LayerCount: 2
Fore
SplineSet
1528 766 m 1
 1358 641 1300 633 1257 633 c 0
 1186 633 1149 688 1149 786 c 0
 1149 928 1268 1042 1411 1042 c 0
 1440 1042 1475 1038 1507 1026 c 1
 1507 1405 l 1
 1430 1434 1321 1440 1264 1440 c 0
 866 1440 590 1182 590 797 c 0
 590 432 895 233 1206 233 c 0
 1323 233 1430 254 1528 293 c 1
 1528 766 l 1
1192 1710 m 0
 1780 1710 2073 1298 2073 805 c 0
 2073 311 1780 -98 1192 -98 c 0
 606 -98 311 311 311 805 c 0
 311 1298 606 1710 1192 1710 c 0
76 805 m 0
 76 80 633 -283 1192 -283 c 0
 1749 -283 2308 80 2308 805 c 0
 2308 1530 1749 1892 1192 1892 c 0
 633 1892 76 1530 76 805 c 0
EndSplineSet
EndChar

StartChar: currency
Encoding: 114 164 144
Width: 1620
VWidth: 0
Flags: W
LayerCount: 2
Fore
SplineSet
809 276 m 0
 958 276 1085 307 1190 360 c 1
 1317 217 l 1
 1446 315 l 1
 1325 451 l 1
 1460 571 1528 739 1528 907 c 0
 1528 1075 1460 1243 1323 1364 c 1
 1446 1501 l 1
 1317 1599 l 1
 1188 1454 l 1
 1085 1507 958 1538 809 1538 c 0
 662 1538 539 1507 436 1458 c 1
 313 1599 l 1
 184 1501 l 1
 299 1368 l 1
 160 1247 90 1077 90 907 c 0
 90 737 160 567 299 446 c 1
 184 315 l 1
 313 217 l 1
 436 356 l 1
 537 305 662 276 809 276 c 0
809 635 m 0
 668 635 532 729 532 915 c 0
 532 1096 670 1186 809 1186 c 0
 948 1186 1085 1096 1085 915 c 0
 1085 729 950 635 809 635 c 0
EndSplineSet
EndChar

StartChar: d
Encoding: 83 100 145
Width: 1740
VWidth: 0
Flags: W
HStem: -35 414<514.5 893.879> 887 401<624 1075.42> 1249 21G<1035 1078>
VStem: 69 620<404.468 674.266>
LayerCount: 2
Fore
SplineSet
1750 1286 m 0,0,-1
69 559 m 0,1,-1
 69 186 364 -35 665 -35 c 0,4,-1
 843 -35 1021 41 1146 207 c 1,7,-1
 1289 0 l 1,8,-1
 1660 0 l 1,9,-1
 1660 1683 l 1,10,-1
 1078 1683 l 1,11,-1
 1078 1249 l 1,12,-1
 992 1276 898 1288 804 1288 c 0,15,-1
 444 1288 69 1063 69 559 c 0,1,-1
788 379 m 0,18,-1
 716 379 689 453 689 516 c 0,21,-1
 689 684 855 887 1001 887 c 0,24,-1
 1027 887 1054 881 1078 866 c 1,27,-1
 1078 510 l 1,28,-1
 1019 463 913 379 788 379 c 0,18,-1
EndSplineSet
EndChar

StartChar: dcroat
Encoding: 265 273 147
Width: 1786
VWidth: 0
Flags: W
LayerCount: 2
Fore
SplineSet
896 1364 m 1
 1083 1364 l 1
 1083 1249 l 1
 997 1276 903 1288 809 1288 c 0
 449 1288 74 1063 74 559 c 0
 74 186 369 -35 670 -35 c 0
 848 -35 1026 41 1151 207 c 1
 1294 0 l 1
 1665 0 l 1
 1665 1364 l 1
 1809 1364 l 1
 1809 1513 l 1
 1665 1513 l 1
 1665 1683 l 1
 1083 1683 l 1
 1083 1513 l 1
 896 1513 l 1
 896 1364 l 1
793 379 m 0
 721 379 694 453 694 516 c 0
 694 684 860 887 1006 887 c 0
 1032 887 1059 881 1083 866 c 1
 1083 510 l 1
 1024 463 918 379 793 379 c 0
EndSplineSet
EndChar

StartChar: degree
Encoding: 126 176 148
Width: 803
VWidth: 0
Flags: W
LayerCount: 2
Fore
SplineSet
401 1460 m 0
 498 1460 547 1391 547 1323 c 0
 547 1255 500 1188 406 1188 c 0
 309 1188 260 1257 260 1327 c 0
 260 1393 307 1460 401 1460 c 0
78 1325 m 0
 78 1112 240 1006 403 1006 c 0
 565 1006 727 1112 727 1325 c 0
 727 1534 563 1640 401 1640 c 0
 240 1640 78 1536 78 1325 c 0
EndSplineSet
EndChar

StartChar: dieresis
Encoding: 118 168 149
Width: 1290
VWidth: 0
Flags: W
LayerCount: 2
Fore
SplineSet
647 680 m 0
360 1284 m 0,1,2
 195 1284 102 1165 102 1049 c 0,3,4
 102 936 178 842 330 842 c 0,5,6
 506 842 582 963 582 1083 c 0,7,8
 582 1194 504 1284 360 1284 c 0,1,2
965 1284 m 0,9,10
 801 1284 709 1165 709 1049 c 0,11,12
 709 936 788 842 938 842 c 0,13,14
 1114 842 1188 963 1188 1083 c 0,15,16
 1188 1194 1110 1284 965 1284 c 0,9,10
EndSplineSet
EndChar

StartChar: dollar
Encoding: 19 36 151
Width: 1382
VWidth: 0
Flags: W
LayerCount: 2
Fore
SplineSet
776 1802 m 1
 623 1802 l 1
 614 1632 l 1
 322 1595 68 1448 68 1126 c 0
 68 623 553 662 553 512 c 0
 553 465 512 451 453 451 c 0
 317 451 88 541 72 545 c 1
 72 72 l 1
 72 72 166 -14 528 -33 c 1
 520 -205 l 1
 674 -205 l 1
 682 -37 l 1
 1073 -33 1327 143 1327 485 c 0
 1327 856 1120 937 848 1040 c 0
 766 1071 745 1094 745 1118 c 0
 745 1147 776 1171 838 1171 c 0
 971 1171 1229 1114 1229 1114 c 1
 1229 1585 l 1
 1192 1595 987 1638 768 1640 c 1
 776 1802 l 1
EndSplineSet
EndChar

StartChar: dotaccent
Encoding: 266 729 152
Width: 694
VWidth: 0
Flags: W
LayerCount: 2
Fore
SplineSet
315 680 m 0
377 1516 m 0,1,2
 168 1516 43 1348 43 1198 c 0,3,4
 43 1057 127 928 317 928 c 0,5,6
 541 928 651 1090 651 1243 c 0,7,8
 651 1382 559 1516 377 1516 c 0,1,2
EndSplineSet
EndChar

StartChar: dotaccentcmb
Encoding: 267 775 153
Width: 694
VWidth: 0
Flags: W
LayerCount: 2
Fore
SplineSet
315 680 m 0
377 1516 m 0,1,2
 168 1516 43 1348 43 1198 c 0,3,4
 43 1057 127 928 317 928 c 0,5,6
 541 928 651 1090 651 1243 c 0,7,8
 651 1382 559 1516 377 1516 c 0,1,2
EndSplineSet
EndChar

StartChar: dotlessi
Encoding: 268 305 154
Width: 700
VWidth: 0
Flags: W
LayerCount: 2
Fore
SplineSet
354 1243 m 0
639 1243 m 1,1,-1
 61 1243 l 1,2,-1
 61 0 l 1,3,-1
 639 0 l 1,4,-1
 639 1243 l 1,1,-1
EndSplineSet
EndChar

StartChar: dotlessj
Encoding: 269 567 155
Width: 965
VWidth: 0
Flags: W
LayerCount: 2
Fore
SplineSet
602 1243 m 0
29 -188 m 1,1,2
 143 -279 297 -332 449 -332 c 0,3,4
 700 -332 909 -168 909 111 c 2,5,-1
 909 1243 l 1,6,-1
 311 1243 l 1,7,-1
 311 317 l 2,8,9
 311 201 209 53 135 53 c 0,10,11
 92 53 57 59 31 70 c 1,12,-1
 29 -188 l 1,1,2
EndSplineSet
EndChar

StartChar: e
Encoding: 84 101 158
Width: 1415
VWidth: 0
Flags: W
HStem: -37 338<524 1052.39> 975 317<728.308 886.923>
VStem: 898 483<759.552 961.346>
LayerCount: 2
Fore
SplineSet
775 1241 m 0,0,-1
816 975 m 1,1,-1
 867 975 898 948 898 887 c 0,4,-1
 898 879 896 872 896 864 c 2,7,-1
 877 711 l 1,8,-1
 658 662 l 1,9,-1
 687 831 673 963 816 975 c 1,1,-1
830 1292 m 0,12,-1
 421 1292 38 1047 38 559 c 0,15,-1
 38 168 363 -37 685 -37 c 0,18,-1
 945 -37 1201 20 1359 156 c 1,21,-1
 1297 467 l 1,22,-1
 1140 332 937 301 855 301 c 0,25,-1
 763 301 658 307 658 434 c 1,28,-1
 689 432 738 432 763 432 c 0,31,-1
 1164 432 1381 662 1381 885 c 0,34,-1
 1381 1090 1217 1292 830 1292 c 0,12,-1
EndSplineSet
EndChar

StartChar: eight
Encoding: 39 56 164
Width: 1769
VWidth: 0
Flags: W
LayerCount: 2
Fore
SplineSet
885 -37 m 0
 1202 -37 1683 23 1683 436 c 0
 1683 655 1587 770 1380 862 c 1
 1561 956 1624 1020 1624 1219 c 0
 1624 1585 1143 1642 885 1642 c 0
 627 1642 145 1585 145 1219 c 0
 145 1020 209 956 389 862 c 1
 182 770 86 655 86 436 c 0
 86 23 567 -37 885 -37 c 0
885 721 m 0
 967 721 1042 657 1042 559 c 0
 1042 444 963 430 885 430 c 0
 807 430 727 444 727 559 c 0
 727 657 803 721 885 721 c 0
885 979 m 0
 836 979 750 1038 750 1118 c 0
 750 1219 821 1233 885 1233 c 0
 948 1233 1020 1219 1020 1118 c 0
 1020 1038 934 979 885 979 c 0
EndSplineSet
EndChar

StartChar: emdash
Encoding: 274 8212 166
Width: 1157
VWidth: 0
Flags: W
LayerCount: 2
Fore
SplineSet
123 614 m 1
 1036 614 l 1
 1036 911 l 1
 123 911 l 1
 123 614 l 1
EndSplineSet
EndChar

StartChar: endash
Encoding: 275 8211 167
Width: 1157
VWidth: 0
Flags: W
LayerCount: 2
Fore
SplineSet
123 614 m 1
 1036 614 l 1
 1036 911 l 1
 123 911 l 1
 123 614 l 1
EndSplineSet
EndChar

StartChar: equal
Encoding: 44 61 168
Width: 1157
VWidth: 0
Flags: W
LayerCount: 2
Fore
SplineSet
123 614 m 1
 1036 614 l 1
 1036 911 l 1
 123 911 l 1
 123 614 l 1
123 55 m 1
 1036 55 l 1
 1036 352 l 1
 123 352 l 1
 123 55 l 1
EndSplineSet
EndChar

StartChar: eth
Encoding: 190 240 169
Width: 1663
VWidth: 0
Flags: W
LayerCount: 2
Fore
SplineSet
760 1063 m 1
 813 1245 l 1
 938 1200 1028 1104 1028 928 c 1
 923 963 802 983 681 983 c 0
 381 983 74 856 74 506 c 0
 74 80 457 -37 766 -37 c 0
 1186 -37 1587 188 1587 727 c 0
 1587 1182 1298 1489 911 1573 c 1
 983 1815 l 1
 776 1855 l 1
 698 1597 l 1
 688 1597 l 2
 516 1597 395 1577 207 1532 c 1
 264 1229 l 1
 359 1257 482 1278 602 1278 c 1
 551 1104 l 1
 760 1063 l 1
731 289 m 0
 659 289 633 362 633 426 c 0
 633 557 799 715 944 715 c 0
 971 715 997 715 1022 694 c 1
 1022 420 l 1
 963 373 856 289 731 289 c 0
EndSplineSet
EndChar

StartChar: exclam
Encoding: 16 33 170
Width: 770
VWidth: 0
Flags: W
LayerCount: 2
Fore
SplineSet
678 1599 m 1
 100 1599 l 1
 203 639 l 1
 575 639 l 1
 678 1599 l 1
418 479 m 0
 221 479 102 330 102 199 c 0
 102 76 182 -37 362 -37 c 0
 573 -37 678 106 678 242 c 0
 678 362 592 479 418 479 c 0
EndSplineSet
EndChar

StartChar: exclamdown
Encoding: 111 161 171
Width: 774
VWidth: 0
Flags: W
LayerCount: 2
Fore
SplineSet
420 1083 m 0
 594 1083 680 1200 680 1321 c 0
 680 1456 575 1599 365 1599 c 0
 184 1599 104 1487 104 1364 c 0
 104 1233 223 1083 420 1083 c 0
578 924 m 1
 205 924 l 1
 102 -37 l 1
 680 -37 l 1
 578 924 l 1
EndSplineSet
EndChar

StartChar: f
Encoding: 85 102 172
Width: 1139
VWidth: 0
Flags: W
HStem: 1427 388<517 979>
LayerCount: 2
Fore
SplineSet
68 926 m 1
 182 926 l 1
 182 0 l 1
 780 0 l 1
 780 926 l 1
 1063 926 l 1
 1063 1243 l 1
 780 1243 l 1
 788 1346 838 1427 965 1427 c 0
 993 1427 1024 1423 1061 1413 c 1
 1061 1712 l 1
 948 1778 795 1815 643 1815 c 0
 391 1815 182 1683 182 1454 c 2
 182 1243 l 1
 68 1243 l 1
 68 926 l 1
EndSplineSet
EndChar

StartChar: ff
Encoding: 276 64256 173
Width: 2116
VWidth: 0
Flags: W
LayerCount: 2
Fore
SplineSet
780 926 m 1
 1176 926 l 1
 1176 0 l 1
 1774 0 l 1
 1774 926 l 1
 2056 926 l 1
 2056 1243 l 1
 1774 1243 l 1
 1782 1346 1831 1427 1958 1427 c 0
 1987 1427 2017 1423 2054 1413 c 1
 2054 1712 l 1
 1942 1778 1788 1815 1636 1815 c 0
 1384 1815 1176 1683 1176 1454 c 2
 1176 1243 l 1
 780 1243 l 1
 788 1346 838 1427 965 1427 c 0
 993 1427 1024 1423 1061 1413 c 1
 1061 1712 l 1
 948 1778 795 1815 643 1815 c 0
 391 1815 182 1683 182 1454 c 2
 182 1243 l 1
 68 1243 l 1
 68 926 l 1
 182 926 l 1
 182 0 l 1
 780 0 l 1
 780 926 l 1
EndSplineSet
EndChar

StartChar: ffi
Encoding: 277 64259 174
Width: 3052
VWidth: 0
Flags: W
LayerCount: 2
Fore
SplineSet
68 926 m 1
 264 926 l 1
 264 0 l 1
 862 0 l 1
 862 926 l 1
 1305 926 l 1
 1305 0 l 1
 1903 0 l 1
 1903 926 l 1
 2367 926 l 1
 2367 0 l 1
 2935 0 l 1
 2935 1243 l 1
 1903 1243 l 1
 1913 1384 2001 1468 2116 1468 c 0
 2144 1468 2173 1464 2204 1454 c 1
 2204 1753 l 1
 2085 1819 1925 1855 1765 1855 c 0
 1513 1855 1305 1724 1305 1495 c 2
 1305 1243 l 1
 862 1243 l 1
 870 1346 920 1427 1047 1427 c 0
 1075 1427 1106 1423 1143 1413 c 1
 1143 1712 l 1
 1030 1778 877 1815 725 1815 c 0
 473 1815 264 1683 264 1454 c 2
 264 1243 l 1
 68 1243 l 1
 68 926 l 1
2671 1819 m 0
 2447 1819 2337 1677 2337 1550 c 0
 2337 1444 2410 1346 2615 1346 c 0
 2828 1346 2947 1483 2947 1608 c 0
 2947 1718 2859 1819 2671 1819 c 0
EndSplineSet
EndChar

StartChar: ffl
Encoding: 278 64260 175
Width: 2834
VWidth: 0
Flags: W
LayerCount: 2
Fore
SplineSet
68 926 m 1
 182 926 l 1
 182 0 l 1
 780 0 l 1
 780 926 l 1
 1161 926 l 1
 1161 0 l 1
 1759 0 l 1
 1759 926 l 1
 2042 926 l 1
 2042 1243 l 1
 1735 1243 l 1
 1724 1278 1720 1309 1720 1335 c 0
 1720 1473 1837 1507 1958 1507 c 0
 2044 1507 2105 1489 2148 1475 c 1
 2148 0 l 1
 2714 0 l 1
 2714 1712 l 1
 2560 1774 2236 1837 1991 1837 c 0
 1513 1837 1161 1726 1161 1352 c 2
 1161 1243 l 1
 780 1243 l 1
 788 1346 838 1427 965 1427 c 0
 993 1427 1024 1423 1061 1413 c 1
 1061 1712 l 1
 948 1778 795 1815 643 1815 c 0
 391 1815 182 1683 182 1454 c 2
 182 1243 l 1
 68 1243 l 1
 68 926 l 1
EndSplineSet
EndChar

StartChar: fi
Encoding: 279 64257 176
Width: 1882
VWidth: 0
Flags: W
LayerCount: 2
Fore
SplineSet
68 926 m 1
 182 926 l 1
 182 0 l 1
 780 0 l 1
 780 926 l 1
 1200 926 l 1
 1200 0 l 1
 1778 0 l 1
 1778 1243 l 1
 780 1243 l 1
 791 1384 879 1468 993 1468 c 0
 1022 1468 1051 1464 1081 1454 c 1
 1081 1753 l 1
 963 1819 803 1855 643 1855 c 0
 391 1855 182 1724 182 1495 c 2
 182 1243 l 1
 68 1243 l 1
 68 926 l 1
1518 1882 m 0
 1321 1882 1202 1733 1202 1602 c 0
 1202 1479 1282 1366 1462 1366 c 0
 1673 1366 1778 1509 1778 1645 c 0
 1778 1765 1692 1882 1518 1882 c 0
EndSplineSet
EndChar

StartChar: five
Encoding: 36 53 177
Width: 1800
VWidth: 0
Flags: W
LayerCount: 2
Fore
SplineSet
68 172 m 1
 319 -2 662 -37 883 -37 c 0
 1257 -37 1708 80 1708 532 c 0
 1708 922 1309 1047 967 1047 c 0
 901 1047 840 1042 782 1034 c 1
 811 1196 l 1
 1597 1196 l 1
 1681 1599 l 1
 356 1599 l 1
 188 797 l 1
 479 676 l 1
 494 679 l 2
 575 695 672 713 776 713 c 0
 854 713 1024 711 1024 567 c 0
 1024 489 958 430 823 430 c 0
 637 430 444 483 305 559 c 1
 68 172 l 1
EndSplineSet
EndChar

StartChar: fl
Encoding: 280 64258 178
Width: 1896
VWidth: 0
Flags: W
LayerCount: 2
Fore
SplineSet
1776 1712 m 1
 1622 1774 1257 1837 1012 1837 c 0
 535 1837 182 1726 182 1352 c 2
 182 1243 l 1
 68 1243 l 1
 68 926 l 1
 182 926 l 1
 182 0 l 1
 780 0 l 1
 780 926 l 1
 1063 926 l 1
 1063 1243 l 1
 756 1243 l 1
 745 1278 741 1309 741 1335 c 0
 741 1473 858 1507 979 1507 c 0
 1065 1507 1155 1489 1198 1475 c 1
 1198 0 l 1
 1776 0 l 1
 1776 1712 l 1
EndSplineSet
EndChar

StartChar: foundryicon
Encoding: 281 -1 179
Width: 1251
VWidth: 0
Flags: W
LayerCount: 2
Fore
SplineSet
604 375 m 2
 592 375 l 1
 550.667 340.333 485.667 289 397 221 c 0
 392.333 217.667 380 206.167 360 186.5 c 0
 340 166.833 321.333 150 304 136 c 0
 286.667 122 274 115 266 115 c 0
 242.667 115 231 123.667 231 141 c 0
 231 146.333 231.833 151.333 233.5 156 c 0
 235.167 160.667 237.333 165.833 240 171.5 c 0
 242.667 177.167 244.667 182 246 186 c 0
 256 230 275.667 293.667 305 377 c 0
 334.333 460.333 350.667 506.667 354 516 c 1
 355.333 517.333 356 518.667 356 520 c 1
 354 522 l 1
 340 541.333 323.167 561.333 303.5 582 c 0
 283.833 602.667 267.333 619.167 254 631.5 c 0
 240.667 643.833 220.167 662 192.5 686 c 0
 164.833 710 146.333 726.333 137 735 c 0
 130.333 741 116 750.167 94 762.5 c 0
 72 774.833 53.8333 787.167 39.5 799.5 c 0
 25.1667 811.833 18 825.333 18 840 c 0
 18 860 31 870 57 870 c 0
 58.3333 870 72 868.167 98 864.5 c 0
 124 860.833 154.667 857.167 190 853.5 c 0
 225.333 849.833 255 848 279 848 c 1
 469 840 l 1
 563 1075 l 1
 569.667 1085 578.333 1104.83 589 1134.5 c 0
 599.667 1164.17 611 1188.33 623 1207 c 0
 635 1225.67 649.333 1235 666 1235 c 0
 675.333 1235 685.833 1229.33 697.5 1218 c 0
 709.167 1206.67 715 1196.67 715 1188 c 0
 715 1142 732.667 1044.33 768 895 c 1
 778 848 l 1
 834.667 844 902.333 842 981 842 c 0
 1005 842 1037.83 843 1079.5 845 c 0
 1121.17 847 1151.67 848 1171 848 c 0
 1207 848 1225 834.333 1225 807 c 0
 1225 803 1218.5 796.167 1205.5 786.5 c 0
 1192.5 776.833 1177.17 766.5 1159.5 755.5 c 0
 1141.83 744.5 1131.33 737.667 1128 735 c 0
 1114 721.667 1091.17 698.5 1059.5 665.5 c 0
 1027.83 632.5 998.833 604.667 972.5 582 c 0
 946.167 559.333 919.667 541.333 893 528 c 2
 881 522 l 1
 881 510 l 2
 881 494 883.333 476.333 888 457 c 0
 892.667 437.667 899 416 907 392 c 0
 915 368 920 352 922 344 c 1
 926 343.333 935.833 307.167 951.5 235.5 c 0
 967.167 163.833 975 120.667 975 106 c 0
 975 96 972 87.8333 966 81.5 c 0
 960 75.1667 952 72 942 72 c 0
 930.667 72 911.167 87.8333 883.5 119.5 c 0
 855.833 151.167 827.333 185.833 798 223.5 c 0
 768.667 261.167 735.667 295.833 699 327.5 c 0
 662.333 359.167 630.667 375 604 375 c 2
EndSplineSet
EndChar

StartChar: four
Encoding: 35 52 180
Width: 1872
VWidth: 0
Flags: W
LayerCount: 2
Fore
SplineSet
47 215 m 1
 961 215 l 1
 961 0 l 1
 1636 0 l 1
 1636 215 l 1
 1778 215 l 1
 1778 702 l 1
 1636 702 l 1
 1636 1599 l 1
 676 1599 l 1
 47 686 l 1
 47 215 l 1
961 1139 m 1
 961 686 l 1
 670 686 l 1
 961 1139 l 1
EndSplineSet
EndChar

StartChar: foursuperior
Encoding: 282 8308 181
Width: 1526
VWidth: 0
Flags: W
LayerCount: 2
Fore
SplineSet
47 172 m 1
 776 172 l 1
 776 0 l 1
 1317 0 l 1
 1317 172 l 1
 1432 172 l 1
 1432 561 l 1
 1317 561 l 1
 1317 1280 l 1
 549 1280 l 1
 47 549 l 1
 47 172 l 1
776 911 m 1
 776 549 l 1
 545 549 l 1
 776 911 l 1
EndSplineSet
EndChar

StartChar: fraction
Encoding: 283 8260 182
Width: 1171
VWidth: 0
Flags: W
LayerCount: 2
Fore
SplineSet
1165 1597 m 1
 573 1597 l 1
 20 0 l 1
 285 0 l 1
 1165 1597 l 1
EndSplineSet
EndChar

StartChar: g
Encoding: 86 103 183
Width: 1685
VWidth: 0
Flags: W
HStem: -555 369<583.066 975.344> -37 416<499.5 875.096> 887 403<576.5 994>
VStem: 80 590<404.795 673.507>
LayerCount: 2
Fore
SplineSet
761 1241 m 0,0,-1
1083 154 m 1,1,-1
 1083 -127 954 -186 811 -186 c 0,4,-1
 731 -186 647 -166 579 -158 c 1,7,-1
 579 -512 l 1,8,-1
 684 -539 805 -555 928 -555 c 0,11,-1
 1261 -555 1597 -426 1597 0 c 2,14,-1
 1597 1243 l 1,15,-1
 1270 1243 l 1,16,-1
 1126 1090 l 1,17,-1
 1044 1217 897 1290 754 1290 c 0,20,-1
 399 1290 80 1008 80 571 c 0,23,-1
 80 164 348 -37 651 -37 c 0,26,-1
 811 -37 967 27 1083 154 c 1,1,-1
768 379 m 0,29,-1
 696 379 670 453 670 516 c 0,32,-1
 670 684 835 887 981 887 c 0,35,-1
 1007 887 1034 881 1059 866 c 1,38,-1
 1059 510 l 1,39,-1
 999 463 893 379 768 379 c 0,29,-1
EndSplineSet
EndChar

StartChar: germandbls
Encoding: 173 223 186
Width: 1806
VWidth: 0
Flags: W
LayerCount: 2
Fore
SplineSet
55 -55 m 1
 680 -55 l 1
 680 1112 l 2
 680 1135 809 1233 887 1233 c 0
 928 1233 975 1206 975 1147 c 0
 975 1042 874 979 817 950 c 1
 817 725 l 1
 860 735 918 758 961 758 c 0
 1012 758 1053 733 1053 641 c 0
 1053 487 924 434 817 373 c 1
 817 -57 l 1
 827 -59 842 -59 846 -59 c 0
 1212 -59 1761 -16 1761 487 c 0
 1761 817 1583 881 1407 936 c 1
 1552 1004 1640 1071 1640 1219 c 0
 1640 1458 1337 1595 975 1595 c 0
 522 1595 55 1430 55 989 c 2
 55 -55 l 1
EndSplineSet
EndChar

StartChar: grave
Encoding: 79 96 187
Width: 625
VWidth: 0
Flags: W
LayerCount: 2
Fore
SplineSet
555 680 m 0
33 1476 m 1,1,-1
 463 938 l 2,2,3
 500 892 530 868 555 868 c 0,4,5
 578 868 592 889 592 923 c 0,6,7
 592 938 590 956 584 977 c 2,8,-1
 440 1476 l 1,9,-1
 33 1476 l 1,1,-1
EndSplineSet
EndChar

StartChar: greater
Encoding: 45 62 188
Width: 1014
VWidth: 0
Flags: W
LayerCount: 2
Fore
SplineSet
123 139 m 1
 975 735 l 2
 998 751 1014 782 1014 815 c 0
 1014 850 1001 881 975 895 c 1
 123 1466 l 1
 123 969 l 1
 346 840 l 1
 123 705 l 1
 123 139 l 1
EndSplineSet
EndChar

StartChar: guillemotleft
Encoding: 121 171 189
Width: 1606
VWidth: 0
Flags: W
LayerCount: 2
Fore
SplineSet
1485 1446 m 1
 797 870 l 2
 774 851 758 824 758 791 c 0
 758 756 774 729 797 711 c 2
 1485 160 l 1
 1485 616 l 1
 1249 797 l 1
 1485 963 l 1
 1485 1446 l 1
754 1446 m 1
 66 870 l 2
 43 851 27 824 27 791 c 0
 27 756 43 729 66 711 c 2
 754 160 l 1
 754 616 l 1
 518 797 l 1
 754 963 l 1
 754 1446 l 1
EndSplineSet
EndChar

StartChar: guillemotright
Encoding: 137 187 190
Width: 1608
VWidth: 0
Flags: W
LayerCount: 2
Fore
SplineSet
123 160 m 1
 811 735 l 2
 834 754 850 782 850 815 c 0
 850 850 834 877 811 895 c 2
 123 1446 l 1
 123 989 l 1
 358 809 l 1
 123 643 l 1
 123 160 l 1
854 160 m 1
 1542 735 l 2
 1565 754 1581 782 1581 815 c 0
 1581 850 1565 877 1542 895 c 2
 854 1446 l 1
 854 989 l 1
 1090 809 l 1
 854 643 l 1
 854 160 l 1
EndSplineSet
EndChar

StartChar: guilsinglleft
Encoding: 286 8249 191
Width: 1010
VWidth: 0
Flags: W
LayerCount: 2
Fore
SplineSet
891 1466 m 1
 39 870 l 1
 14 856 0 823 0 791 c 0
 0 756 12 725 39 711 c 1
 891 139 l 1
 891 637 l 1
 668 766 l 1
 891 901 l 1
 891 1466 l 1
EndSplineSet
EndChar

StartChar: guilsinglright
Encoding: 287 8250 192
Width: 1014
VWidth: 0
Flags: W
LayerCount: 2
Fore
SplineSet
123 139 m 1
 975 735 l 2
 998 751 1014 782 1014 815 c 0
 1014 850 1001 881 975 895 c 1
 123 1466 l 1
 123 969 l 1
 346 840 l 1
 123 705 l 1
 123 139 l 1
EndSplineSet
EndChar

StartChar: h
Encoding: 87 104 193
Width: 1618
VWidth: 0
Flags: W
HStem: 907 383<735 1195>
LayerCount: 2
Fore
SplineSet
674 0 m 1
 674 776 l 2
 674 850 700 907 770 907 c 0
 860 907 944 760 944 539 c 2
 944 0 l 1
 1542 0 l 1
 1542 766 l 2
 1542 1094 1329 1290 1061 1290 c 0
 909 1290 760 1225 674 1110 c 1
 674 1683 l 1
 80 1683 l 1
 80 0 l 1
 674 0 l 1
EndSplineSet
EndChar

StartChar: hbar
Encoding: 288 295 194
Width: 1649
VWidth: 0
Flags: W
LayerCount: 2
Fore
SplineSet
-10 1336 m 1
 146 1336 l 1
 146 0 l 1
 740 0 l 1
 740 776 l 2
 740 850 766 907 836 907 c 0
 926 907 1010 760 1010 539 c 2
 1010 0 l 1
 1608 0 l 1
 1608 766 l 2
 1608 1094 1395 1290 1127 1290 c 0
 975 1290 826 1225 740 1110 c 1
 740 1336 l 1
 903 1336 l 1
 903 1539 l 1
 740 1539 l 1
 740 1683 l 1
 146 1683 l 1
 146 1539 l 1
 -10 1539 l 1
 -10 1336 l 1
EndSplineSet
EndChar

StartChar: hungarumlaut
Encoding: 289 733 195
Width: 1274
VWidth: 0
Flags: W
LayerCount: 2
Fore
SplineSet
406 680 m 0
188 1485 m 1,1,-1
 147 985 l 2,2,3
 147 975 145 967 145 958 c 0,4,5
 145 903 164 877 186 877 c 0,6,7
 211 877 239 899 268 946 c 2,8,-1
 596 1485 l 1,9,-1
 188 1485 l 1,1,-1
725 1485 m 1,10,-1
 596 985 l 1,11,12
 596 963 594 944 594 930 c 0,13,14
 594 895 606 881 627 881 c 0,15,16
 653 881 690 905 723 946 c 2,17,-1
 1153 1485 l 1,18,-1
 725 1485 l 1,10,-1
EndSplineSet
EndChar

StartChar: hyphen
Encoding: 28 45 196
Width: 1008
VWidth: 0
Flags: W
LayerCount: 2
Fore
SplineSet
123 479 m 1
 887 479 l 1
 887 911 l 1
 123 911 l 1
 123 479 l 1
EndSplineSet
EndChar

StartChar: i
Encoding: 88 105 197
Width: 780
VWidth: 0
Flags: W
HStem: 1346 473<228.694 548.474>
VStem: 85 611<1477.95 1685.45>
LayerCount: 2
Fore
SplineSet
391 0 m 0,0,-1
419 1819 m 0,1,-1
 196 1819 85 1677 85 1550 c 0,4,-1
 85 1444 159 1346 364 1346 c 0,7,-1
 577 1346 696 1483 696 1608 c 0,10,-1
 696 1718 608 1819 419 1819 c 0,1,-1
679 1243 m 1,13,-1
 100 1243 l 1,14,-1
 100 0 l 1,15,-1
 679 0 l 1,16,-1
 679 1243 l 1,13,-1
EndSplineSet
EndChar

StartChar: ij
Encoding: 290 307 202
Width: 1721
VWidth: 0
Flags: HW
LayerCount: 2
Fore
SplineSet
736 -258 m 1
 850 -349 1004 -402 1156 -402 c 0
 1407 -402 1616 -238 1616 41 c 2
 1616 1243 l 1
 1018 1243 l 1
 1018 177 l 2
 1018 61 916 -87 842 -87 c 0
 799 -87 764 -81 738 -70 c 1
 736 -258 l 1
1344 1819 m 0
 1121 1819 1010 1677 1010 1550 c 0
 1010 1444 1084 1346 1289 1346 c 0
 1502 1346 1620 1483 1620 1608 c 0
 1620 1718 1532 1819 1344 1819 c 0
EndSplineSet
Refer: 197 105 N 1 0 0 1 0 0 2
EndChar

StartChar: j
Encoding: 89 106 205
Width: 970
VWidth: 0
Flags: W
HStem: -332 385<122.5 583.5> 1346 473<455.694 774.87>
LayerCount: 2
Fore
SplineSet
38 -188 m 1
 152 -279 306 -332 458 -332 c 0
 709 -332 918 -168 918 111 c 2
 918 1243 l 1
 320 1243 l 1
 320 317 l 2
 320 201 218 53 144 53 c 0
 101 53 66 59 40 70 c 1
 38 -188 l 1
646 1819 m 0
 423 1819 312 1677 312 1550 c 0
 312 1444 386 1346 591 1346 c 0
 804 1346 922 1483 922 1608 c 0
 922 1718 834 1819 646 1819 c 0
EndSplineSet
EndChar

StartChar: k
Encoding: 90 107 207
Width: 1499
VWidth: 0
Flags: W
LayerCount: 2
Fore
SplineSet
673 0 m 0,0,-1
65 1683 m 1,1,-1
 65 0 l 1,2,-1
 593 0 l 1,3,-1
 593 369 l 1,4,-1
 595 379 604 393 610 403 c 1,7,-1
 860 0 l 1,8,-1
 1470 0 l 1,9,-1
 1025 700 l 1,10,-1
 1408 1243 l 1,11,-1
 819 1243 l 1,12,-1
 583 872 l 1,13,-1
 583 1683 l 1,14,-1
 65 1683 l 1,1,-1
EndSplineSet
EndChar

StartChar: kgreenlandic
Encoding: 295 312 209
Width: 1556
VWidth: 0
Flags: W
LayerCount: 2
Fore
SplineSet
123 1243 m 1
 123 0 l 1
 651 0 l 1
 651 416 l 1
 918 0 l 1
 1528 0 l 1
 1071 668 l 1
 1466 1243 l 1
 877 1243 l 1
 641 852 l 1
 641 1243 l 1
 123 1243 l 1
EndSplineSet
EndChar

StartChar: l
Encoding: 91 108 210
Width: 737
VWidth: 0
Flags: W
VStem: 85 567
LayerCount: 2
Fore
SplineSet
374 1612 m 0,0,-1
652 1683 m 1,1,-1
 85 1683 l 1,2,-1
 85 0 l 1,3,-1
 652 0 l 1,4,-1
 652 1683 l 1,1,-1
EndSplineSet
EndChar

StartChar: less
Encoding: 43 60 214
Width: 1010
VWidth: 0
Flags: W
LayerCount: 2
Fore
SplineSet
891 1466 m 1
 39 870 l 1
 14 856 0 823 0 791 c 0
 0 756 12 725 39 711 c 1
 891 139 l 1
 891 637 l 1
 668 766 l 1
 891 901 l 1
 891 1466 l 1
EndSplineSet
EndChar

StartChar: lj
Encoding: 299 457 215
Width: 1827
VWidth: 0
Flags: W
LayerCount: 2
Fore
SplineSet
690 1683 m 1
 123 1683 l 1
 123 0 l 1
 690 0 l 1
 690 1683 l 1
842 -188 m 1
 956 -279 1110 -332 1262 -332 c 0
 1513 -332 1722 -168 1722 111 c 2
 1722 1241 l 1
 1124 1241 l 1
 1124 317 l 2
 1124 201 1022 53 948 53 c 0
 905 53 870 59 844 70 c 1
 842 -188 l 1
1450 1819 m 0
 1227 1819 1116 1677 1116 1550 c 0
 1116 1444 1190 1346 1395 1346 c 0
 1608 1346 1726 1483 1726 1608 c 0
 1726 1718 1638 1819 1450 1819 c 0
EndSplineSet
EndChar

StartChar: logicalnot
Encoding: 122 172 216
Width: 1219
VWidth: 0
Flags: W
LayerCount: 2
Fore
SplineSet
39 479 m 1
 801 479 l 1
 801 305 l 1
 1098 305 l 1
 1098 911 l 1
 39 911 l 1
 39 479 l 1
EndSplineSet
EndChar

StartChar: lslash
Encoding: 300 322 217
Width: 741
VWidth: 0
Flags: W
LayerCount: 2
Fore
SplineSet
690 1774 m 1
 123 1774 l 1
 123 973 l 1
 -55 911 l 1
 -55 541 l 1
 123 604 l 1
 123 0 l 1
 690 0 l 1
 690 805 l 1
 872 870 l 1
 872 1241 l 1
 690 1176 l 1
 690 1774 l 1
EndSplineSet
EndChar

StartChar: m
Encoding: 92 109 218
Width: 2320
VWidth: 0
Flags: W
HStem: 905 385<724 1115 1508.5 1937.5>
LayerCount: 2
Fore
SplineSet
889 0 m 1
 1456 0 l 1
 1456 791 l 2
 1456 854 1481 905 1536 905 c 0
 1593 905 1663 819 1663 641 c 2
 1663 0 l 1
 2243 0 l 1
 2243 848 l 2
 2243 1126 2052 1290 1823 1290 c 0
 1667 1290 1513 1210 1405 1073 c 1
 1333 1212 1194 1290 1036 1290 c 0
 852 1290 653 1200 551 1049 c 1
 408 1243 l 1
 80 1243 l 1
 80 0 l 1
 674 0 l 1
 674 776 l 2
 674 846 694 905 754 905 c 0
 811 905 889 819 889 641 c 2
 889 0 l 1
EndSplineSet
EndChar

StartChar: macron
Encoding: 125 175 219
Width: 1157
VWidth: 0
Flags: W
LayerCount: 2
Fore
SplineSet
588 680 m 0
123 946 m 1,1,-1
 1036 946 l 1,2,-1
 1036 1243 l 1,3,-1
 123 1243 l 1,4,-1
 123 946 l 1,1,-1
EndSplineSet
EndChar

StartChar: mu
Encoding: 131 181 220
Width: 1649
VWidth: 0
Flags: W
LayerCount: 2
Fore
SplineSet
123 -233 m 1
 721 -233 l 1
 721 27 l 1
 766 8 809 0 848 0 c 0
 954 0 1049 55 1100 195 c 1
 1243 0 l 1
 1571 0 l 1
 1571 1243 l 1
 977 1243 l 1
 977 467 l 1
 948 365 887 322 829 322 c 0
 772 322 721 367 721 438 c 2
 721 1243 l 1
 123 1243 l 1
 123 -233 l 1
EndSplineSet
EndChar

StartChar: multiply
Encoding: 165 215 221
Width: 1171
VWidth: 0
Flags: W
LayerCount: 2
Fore
SplineSet
66 389 m 1
 326 129 l 1
 588 389 l 1
 846 131 l 1
 1108 391 l 1
 848 651 l 1
 1108 909 l 1
 846 1171 l 1
 588 911 l 1
 326 1171 l 1
 66 911 l 1
 326 651 l 1
 66 389 l 1
EndSplineSet
EndChar

StartChar: n
Encoding: 93 110 222
Width: 1605
VWidth: 0
Flags: W
HStem: 905 385<724 1193>
LayerCount: 2
Fore
SplineSet
795 1243 m 0,0,-1
930 0 m 1,1,-1
 1528 0 l 1,2,-1
 1528 848 l 2,3,-1
 1528 1126 1319 1290 1067 1290 c 0,6,-1
 866 1290 661 1200 551 1049 c 1,9,-1
 408 1243 l 1,10,-1
 80 1243 l 1,11,-1
 80 0 l 1,12,-1
 674 0 l 1,13,-1
 674 776 l 2,14,-1
 674 846 694 905 754 905 c 0,17,-1
 862 905 930 817 930 600 c 2,20,-1
 930 0 l 1,1,-1
EndSplineSet
EndChar

StartChar: nine
Encoding: 40 57 226
Width: 1784
VWidth: 0
Flags: W
LayerCount: 2
Fore
SplineSet
776 1292 m 0
 918 1292 1042 1153 1042 954 c 1
 772 954 l 1
 696 1053 670 1151 670 1208 c 0
 670 1268 725 1292 776 1292 c 0
819 -37 m 0
 1327 -37 1710 291 1710 879 c 0
 1710 1368 1300 1642 866 1642 c 0
 518 1642 74 1534 74 1100 c 0
 74 717 444 625 799 625 c 0
 887 625 979 631 1049 649 c 1
 1051 633 1051 627 1051 614 c 0
 1051 465 946 397 831 397 c 0
 758 397 680 440 639 520 c 1
 639 520 229 408 137 383 c 1
 186 109 547 -37 819 -37 c 0
EndSplineSet
EndChar

StartChar: nj
Encoding: 303 460 227
Width: 2586
VWidth: 0
Flags: W
LayerCount: 2
Fore
SplineSet
971 0 m 1
 1569 0 l 1
 1569 848 l 2
 1569 1126 1360 1290 1108 1290 c 0
 907 1290 702 1200 592 1049 c 1
 449 1243 l 1
 121 1243 l 1
 121 0 l 1
 715 0 l 1
 715 776 l 2
 715 846 735 905 795 905 c 0
 903 905 971 817 971 600 c 2
 971 0 l 1
1601 -338 m 1
 1715 -387 1869 -412 2021 -412 c 0
 2272 -412 2481 -248 2481 31 c 2
 2481 1241 l 1
 1883 1241 l 1
 1883 167 l 2
 1883 51 1781 -97 1707 -97 c 0
 1664 -97 1629 -91 1603 -80 c 1
 1601 -338 l 1
2209 1819 m 0
 1986 1819 1875 1677 1875 1550 c 0
 1875 1444 1949 1346 2154 1346 c 0
 2367 1346 2485 1483 2485 1608 c 0
 2485 1718 2397 1819 2209 1819 c 0
EndSplineSet
EndChar

StartChar: numbersign
Encoding: 18 35 229
Width: 2056
VWidth: 0
Flags: W
LayerCount: 2
Fore
SplineSet
170 942 m 1
 330 942 l 1
 293 680 l 1
 117 680 l 1
 76 381 l 1
 252 381 l 1
 199 0 l 1
 688 0 l 1
 776 381 l 1
 1018 381 l 1
 936 0 l 1
 1364 0 l 1
 1505 381 l 1
 1759 381 l 1
 1841 680 l 1
 1616 680 l 1
 1714 942 l 1
 1915 942 l 1
 1997 1241 l 1
 1825 1241 l 1
 1958 1597 l 1
 1284 1597 l 1
 1206 1241 l 1
 975 1241 l 1
 1057 1597 l 1
 424 1597 l 1
 373 1241 l 1
 211 1241 l 1
 170 942 l 1
905 942 m 1
 1141 942 l 1
 1083 680 l 1
 844 680 l 1
 905 942 l 1
EndSplineSet
EndChar

StartChar: o
Encoding: 94 111 230
Width: 1553
VWidth: 0
Flags: W
HStem: -37 404<612.564 803.837> 899 391<574.5 1003.29>
VStem: 58 528<394.194 647.023> 1022 473<420 871.944>
LayerCount: 2
Fore
SplineSet
768 1241 m 0,0,-1
918 899 m 0,1,-1
 994 899 1022 840 1022 780 c 0,4,-1
 1022 623 822 367 705 367 c 0,7,-1
 615 367 586 426 586 485 c 0,10,-1
 586 657 779 899 918 899 c 0,1,-1
768 -37 m 0,13,-1
 1151 -37 1495 217 1495 623 c 0,16,-1
 1495 1036 1176 1290 768 1290 c 0,19,-1
 381 1290 58 1024 58 627 c 0,22,-1
 58 223 410 -37 768 -37 c 0,13,-1
EndSplineSet
EndChar

StartChar: oe
Encoding: 304 339 234
Width: 2544
VWidth: 0
Flags: W
LayerCount: 2
Fore
SplineSet
721 -37 m 0
 901 -37 1073 27 1210 137 c 1
 1331 20 1481 -37 1634 -37 c 0
 1853 -37 2116 20 2226 156 c 1
 2165 467 l 1
 1959 330 1853 326 1779 326 c 0
 1696 326 1612 328 1612 414 c 1
 1642 412 1667 412 1692 412 c 0
 2048 412 2258 668 2258 903 c 0
 2258 1105 2105 1292 1759 1292 c 0
 1563 1292 1376 1231 1233 1106 c 1
 1114 1223 956 1290 782 1290 c 0
 309 1290 74 944 74 606 c 0
 74 281 291 -37 721 -37 c 0
860 897 m 0
 940 897 973 844 973 776 c 0
 973 623 823 381 721 381 c 0
 635 381 606 434 606 508 c 0
 606 662 754 897 860 897 c 0
1704 975 m 1
 1755 975 1786 948 1786 887 c 0
 1786 879 1784 872 1784 864 c 2
 1765 711 l 1
 1559 662 l 1
 1583 831 1579 963 1704 975 c 1
EndSplineSet
EndChar

StartChar: ogonek
Encoding: 305 731 235
Width: 696
VWidth: 0
Flags: W
LayerCount: 2
Fore
SplineSet
383 0 m 0
637 -543 m 1,1,2
 664 -522 676 -500 676 -481 c 0,3,4
 676 -449 647 -420 616 -420 c 0,5,6
 598 -420 506 -483 401 -483 c 0,7,8
 336 -483 311 -444 311 -387 c 0,9,10
 311 -246 455 0 455 0 c 1,11,-1
 317 0 l 1,12,13
 317 0 39 -197 39 -401 c 0,14,15
 39 -561 182 -629 334 -629 c 0,16,17
 444 -629 561 -594 637 -543 c 1,1,2
EndSplineSet
EndChar

StartChar: one
Encoding: 32 49 238
Width: 1155
VWidth: 0
Flags: W
LayerCount: 2
Fore
SplineSet
375 0 m 1
 1034 0 l 1
 1034 1597 l 1
 850 1597 l 1
 20 1217 l 1
 20 731 l 1
 375 860 l 1
 375 0 l 1
EndSplineSet
EndChar

StartChar: onesuperior
Encoding: 135 185 241
Width: 952
VWidth: 0
Flags: W
LayerCount: 2
Fore
SplineSet
303 0 m 1
 831 0 l 1
 831 1278 l 1
 684 1278 l 1
 20 973 l 1
 20 586 l 1
 303 688 l 1
 303 0 l 1
EndSplineSet
EndChar

StartChar: ordfeminine
Encoding: 120 170 242
Width: 1362
VWidth: 0
Flags: W
LayerCount: 2
Fore
SplineSet
88 1114 m 0
 88 764 287 580 522 580 c 0
 655 580 793 653 868 774 c 1
 983 608 l 1
 1245 608 l 1
 1245 1604 l 1
 983 1604 l 1
 868 1448 l 1
 791 1569 645 1640 506 1640 c 0
 279 1640 88 1444 88 1114 c 0
584 903 m 0
 510 903 492 954 492 1006 c 0
 492 1163 696 1290 815 1290 c 1
 815 1044 l 1
 768 973 668 903 584 903 c 0
EndSplineSet
EndChar

StartChar: ordmasculine
Encoding: 136 186 243
Width: 1303
VWidth: 0
Flags: W
LayerCount: 2
Fore
SplineSet
723 1325 m 0
 786 1325 813 1284 813 1229 c 0
 813 1106 694 913 612 913 c 0
 543 913 520 956 520 1014 c 0
 520 1137 639 1325 723 1325 c 0
645 580 m 0
 950 580 1227 782 1227 1106 c 0
 1227 1438 971 1640 645 1640 c 0
 336 1640 76 1427 76 1110 c 0
 76 786 358 580 645 580 c 0
EndSplineSet
EndChar

StartChar: oslash
Encoding: 198 248 244
Width: 1587
VWidth: 0
Flags: W
LayerCount: 2
Fore
SplineSet
784 -37 m 0
 1167 -37 1511 217 1511 623 c 0
 1511 901 1366 1108 1147 1212 c 1
 1217 1399 l 1
 1053 1454 l 1
 981 1270 l 1
 918 1282 852 1290 784 1290 c 0
 397 1290 74 1024 74 627 c 0
 74 334 258 117 496 18 c 1
 438 -129 l 1
 602 -184 l 1
 664 -27 l 1
 705 -33 743 -37 784 -37 c 0
934 899 m 0
 1010 899 1038 840 1038 780 c 0
 1038 623 838 367 721 367 c 0
 631 367 602 426 602 485 c 0
 602 657 795 899 934 899 c 0
EndSplineSet
EndChar

StartChar: p
Encoding: 95 112 246
Width: 1597
VWidth: 0
Flags: W
HStem: 877 413<821.311 1191>
VStem: 1035 494<630.903 856.391>
LayerCount: 2
Fore
SplineSet
1023 1290 m 0
 884 1290 708 1223 548 1051 c 1
 409 1243 l 1
 81 1243 l 1
 81 -324 l 1
 675 -324 l 1
 675 0 l 1
 1310 12 1529 467 1529 788 c 0
 1529 1065 1359 1290 1023 1290 c 0
923 877 m 0
 1002 877 1035 831 1035 776 c 0
 1035 555 744 399 675 352 c 1
 675 639 l 1
 726 758 834 877 923 877 c 0
EndSplineSet
EndChar

StartChar: paragraph
Encoding: 132 182 247
Width: 1751
VWidth: 0
Flags: W
LayerCount: 2
Fore
SplineSet
1628 1597 m 1
 539 1597 l 2
 213 1597 39 1362 39 1116 c 0
 39 727 317 449 707 449 c 0
 754 449 803 453 864 453 c 1
 864 0 l 1
 1192 0 l 1
 1192 1292 l 1
 1307 1292 l 1
 1307 0 l 1
 1628 0 l 1
 1628 1597 l 1
EndSplineSet
EndChar

StartChar: parenleft
Encoding: 23 40 248
Width: 1022
VWidth: 0
Flags: W
LayerCount: 2
Fore
SplineSet
897 1673 m 1
 391 1667 41 1305 41 766 c 0
 41 221 453 -66 901 -66 c 1
 901 303 l 1
 719 307 600 510 600 737 c 0
 600 936 688 1174 897 1333 c 1
 897 1673 l 1
EndSplineSet
EndChar

StartChar: parenright
Encoding: 24 41 249
Width: 1024
VWidth: 0
Flags: W
LayerCount: 2
Fore
SplineSet
127 1333 m 1
 336 1174 424 936 424 737 c 0
 424 510 305 307 123 303 c 1
 123 -66 l 1
 571 -66 983 221 983 766 c 0
 983 1305 633 1667 127 1673 c 1
 127 1333 l 1
EndSplineSet
EndChar

StartChar: percent
Encoding: 20 37 250
Width: 3320
VWidth: 0
Flags: W
LayerCount: 2
Fore
SplineSet
2640 313 m 0
 2517 313 2454 438 2454 563 c 0
 2454 686 2515 809 2640 809 c 0
 2763 809 2824 682 2824 559 c 0
 2824 436 2763 313 2640 313 c 0
2640 -37 m 0
 3049 -37 3256 262 3256 561 c 0
 3256 860 3049 1159 2640 1159 c 0
 2228 1159 2023 860 2023 561 c 0
 2023 262 2228 -37 2640 -37 c 0
676 795 m 0
 553 795 489 920 489 1044 c 0
 489 1167 551 1290 676 1290 c 0
 799 1290 860 1163 860 1040 c 0
 860 918 799 795 676 795 c 0
676 444 m 0
 1085 444 1292 743 1292 1042 c 0
 1292 1341 1085 1640 676 1640 c 0
 264 1640 59 1341 59 1042 c 0
 59 743 264 444 676 444 c 0
2310 1597 m 1
 1718 1597 l 1
 1165 0 l 1
 1430 0 l 1
 2310 1597 l 1
EndSplineSet
EndChar

StartChar: period
Encoding: 29 46 251
Width: 760
VWidth: 0
Flags: W
LayerCount: 2
Fore
SplineSet
410 551 m 0
 201 551 76 383 76 233 c 0
 76 92 160 -37 350 -37 c 0
 573 -37 684 125 684 279 c 0
 684 418 592 551 410 551 c 0
EndSplineSet
EndChar

StartChar: periodcentered
Encoding: 133 183 252
Width: 760
VWidth: 0
Flags: W
LayerCount: 2
Fore
SplineSet
410 1241 m 0
 201 1241 76 1073 76 924 c 0
 76 782 160 653 350 653 c 0
 573 653 684 815 684 969 c 0
 684 1108 592 1241 410 1241 c 0
EndSplineSet
EndChar

StartChar: plus
Encoding: 26 43 253
Width: 1087
VWidth: 0
Flags: W
LayerCount: 2
Fore
SplineSet
33 963 m 1
 33 594 l 1
 360 594 l 1
 360 268 l 1
 729 268 l 1
 729 594 l 1
 1055 594 l 1
 1055 963 l 1
 729 963 l 1
 729 1290 l 1
 360 1290 l 1
 360 963 l 1
 33 963 l 1
EndSplineSet
EndChar

StartChar: plusminus
Encoding: 127 177 254
Width: 936
VWidth: 0
Flags: W
LayerCount: 2
Fore
SplineSet
59 979 m 1
 59 684 l 1
 322 684 l 1
 322 424 l 1
 616 424 l 1
 616 684 l 1
 877 684 l 1
 877 979 l 1
 616 979 l 1
 616 1241 l 1
 322 1241 l 1
 322 979 l 1
 59 979 l 1
102 0 m 1
 831 0 l 1
 831 238 l 1
 102 238 l 1
 102 0 l 1
EndSplineSet
EndChar

StartChar: q
Encoding: 96 113 255
Width: 1658
VWidth: 0
Flags: HW
LayerCount: 2
Fore
SplineSet
1578 1229 m 1
 1343 1268 1144 1284 976 1284 c 0
 196 1284 69 797 69 565 c 0
 69 248 257 -37 636 -37 c 0
 738 -37 915 8 1037 127 c 1
 1037 -326 l 1
 1578 -326 l 1
 1578 1229 l 1
749 379 m 0
 677 379 650 453 650 516 c 0
 650 684 816 887 962 887 c 0
 988 887 1015 881 1039 866 c 1
 1039 510 l 1
 980 463 874 379 749 379 c 0
EndSplineSet
EndChar

StartChar: question
Encoding: 46 63 256
Width: 1155
VWidth: 0
Flags: W
LayerCount: 2
Fore
SplineSet
676 553 m 1
 778 879 1120 784 1120 1214 c 0
 1120 1540 791 1638 473 1638 c 0
 332 1638 190 1616 82 1585 c 1
 82 1155 l 1
 125 1174 279 1227 401 1227 c 0
 489 1227 561 1200 561 1110 c 0
 561 999 281 993 281 725 c 0
 281 678 289 621 311 553 c 1
 676 553 l 1
526 479 m 0
 330 479 211 330 211 199 c 0
 211 76 291 -37 471 -37 c 0
 682 -37 786 106 786 242 c 0
 786 362 700 479 526 479 c 0
EndSplineSet
EndChar

StartChar: quotedbl
Encoding: 17 34 258
Width: 1317
VWidth: 0
Flags: W
LayerCount: 2
Fore
SplineSet
1214 1597 m 1
 698 1597 l 1
 801 844 l 1
 1133 844 l 1
 1214 1597 l 1
614 1597 m 1
 98 1597 l 1
 201 844 l 1
 532 844 l 1
 614 1597 l 1
EndSplineSet
EndChar

StartChar: quotedblbase
Encoding: 307 8222 259
Width: 1585
VWidth: 0
Flags: W
LayerCount: 2
Fore
SplineSet
874 -465 m 1
 1298 -465 1483 -285 1483 18 c 2
 1483 422 l 1
 874 422 l 1
 874 0 l 1
 1055 0 l 1
 1055 0 1055 -207 874 -207 c 1
 874 -465 l 1
123 -465 m 1
 547 -465 731 -285 731 18 c 2
 731 422 l 1
 123 422 l 1
 123 0 l 1
 303 0 l 1
 303 0 303 -207 123 -207 c 1
 123 -465 l 1
EndSplineSet
EndChar

StartChar: quotedblleft
Encoding: 308 8220 260
Width: 1587
VWidth: 0
Flags: W
LayerCount: 2
Fore
SplineSet
713 1599 m 1
 289 1599 104 1419 104 1116 c 2
 104 713 l 1
 713 713 l 1
 713 1135 l 1
 532 1135 l 1
 532 1135 532 1341 713 1341 c 1
 713 1599 l 1
1464 1599 m 1
 1040 1599 856 1419 856 1116 c 2
 856 713 l 1
 1464 713 l 1
 1464 1135 l 1
 1284 1135 l 1
 1284 1135 1284 1341 1464 1341 c 1
 1464 1599 l 1
EndSplineSet
EndChar

StartChar: quotedblright
Encoding: 309 8221 261
Width: 1585
VWidth: 0
Flags: W
LayerCount: 2
Fore
SplineSet
874 713 m 1
 1298 713 1483 893 1483 1196 c 2
 1483 1599 l 1
 874 1599 l 1
 874 1178 l 1
 1055 1178 l 1
 1055 1178 1055 971 874 971 c 1
 874 713 l 1
123 713 m 1
 547 713 731 893 731 1196 c 2
 731 1599 l 1
 123 1599 l 1
 123 1178 l 1
 303 1178 l 1
 303 1178 303 971 123 971 c 1
 123 713 l 1
EndSplineSet
EndChar

StartChar: quoteleft
Encoding: 310 8216 262
Width: 811
VWidth: 0
Flags: W
LayerCount: 2
Fore
SplineSet
690 1599 m 1
 266 1599 82 1419 82 1116 c 2
 82 713 l 1
 690 713 l 1
 690 1135 l 1
 510 1135 l 1
 510 1135 510 1341 690 1341 c 1
 690 1599 l 1
EndSplineSet
EndChar

StartChar: quoteright
Encoding: 311 8217 263
Width: 809
VWidth: 0
Flags: W
LayerCount: 2
Fore
SplineSet
123 713 m 1
 547 713 731 893 731 1196 c 2
 731 1599 l 1
 123 1599 l 1
 123 1178 l 1
 303 1178 l 1
 303 1178 303 971 123 971 c 1
 123 713 l 1
EndSplineSet
EndChar

StartChar: quotesinglbase
Encoding: 312 8218 264
Width: 809
VWidth: 0
Flags: W
LayerCount: 2
Fore
SplineSet
123 -465 m 1
 547 -465 731 -285 731 18 c 2
 731 422 l 1
 123 422 l 1
 123 0 l 1
 303 0 l 1
 303 0 303 -207 123 -207 c 1
 123 -465 l 1
EndSplineSet
EndChar

StartChar: quotesingle
Encoding: 22 39 265
Width: 672
VWidth: 0
Flags: W
LayerCount: 2
Fore
SplineSet
590 1597 m 1
 74 1597 l 1
 176 844 l 1
 508 844 l 1
 590 1597 l 1
EndSplineSet
EndChar

StartChar: r
Encoding: 97 114 266
Width: 1042
VWidth: 0
Flags: W
LayerCount: 2
Fore
SplineSet
486 1243 m 0,0,-1
478 0 m 0,1,-1
968 1288 m 1,2,-1
 855 1276 749 1212 681 1110 c 1,5,-1
 681 1243 l 1,6,-1
 79 1243 l 1,7,-1
 79 0 l 1,8,-1
 681 0 l 1,9,-1
 681 580 l 2,10,-1
 681 659 843 774 968 774 c 1,13,-1
 968 1288 l 1,2,-1
EndSplineSet
EndChar

StartChar: registered
Encoding: 124 174 270
Width: 2384
VWidth: 0
Flags: W
LayerCount: 2
Fore
SplineSet
1288 281 m 1
 1845 281 l 1
 1540 680 l 1
 1669 750 1761 858 1761 1008 c 0
 1761 1210 1573 1405 1247 1405 c 2
 633 1405 l 1
 633 281 l 1
 1092 281 l 1
 1092 575 l 1
 1110 575 l 1
 1288 281 l 1
1253 1110 m 0
 1303 1110 1327 1065 1327 1014 c 0
 1327 919 1249 891 1178 844 c 1
 1090 795 l 1
 1090 1047 l 1
 1090 1047 1194 1110 1253 1110 c 0
1192 1710 m 0
 1780 1710 2073 1298 2073 805 c 0
 2073 311 1780 -98 1192 -98 c 0
 606 -98 311 311 311 805 c 0
 311 1298 606 1710 1192 1710 c 0
76 805 m 0
 76 80 633 -283 1192 -283 c 0
 1749 -283 2308 80 2308 805 c 0
 2308 1530 1749 1892 1192 1892 c 0
 633 1892 76 1530 76 805 c 0
EndSplineSet
EndChar

StartChar: ring
Encoding: 316 730 271
Width: 735
VWidth: 0
Flags: W
LayerCount: 2
Fore
SplineSet
371 680 m 0
367 1327 m 0,1,2
 463 1327 512 1257 512 1190 c 0,3,4
 512 1122 465 1055 371 1055 c 0,5,6
 274 1055 225 1124 225 1194 c 0,7,8
 225 1260 272 1327 367 1327 c 0,1,2
43 1192 m 0,9,10
 43 979 205 872 369 872 c 0,11,12
 530 872 692 979 692 1192 c 0,13,14
 692 1401 528 1507 367 1507 c 0,15,16
 205 1507 43 1403 43 1192 c 0,9,10
EndSplineSet
EndChar

StartChar: s
Encoding: 98 115 272
Width: 1146
VWidth: 0
Flags: W
HStem: -37 385<176.268 716.5> 922 368<488.008 977.588>
LayerCount: 2
Fore
SplineSet
551 1243 m 0,0,-1
556 0 m 0,1,-1
71 424 m 1,2,-1
 71 53 l 1,3,-1
 71 53 170 -37 555 -37 c 0,6,-1
 878 -37 1089 102 1089 377 c 0,9,-1
 1089 664 925 726 714 812 c 0,12,-1
 645 840 628 858 628 879 c 0,15,-1
 628 901 649 922 688 922 c 0,18,-1
 788 922 1011 870 1011 870 c 1,21,-1
 1011 1247 l 1,22,-1
 981 1255 811 1290 630 1290 c 0,25,-1
 348 1290 67 1184 67 885 c 0,28,-1
 67 500 450 520 450 397 c 0,31,-1
 450 360 424 348 385 348 c 0,34,-1
 270 348 108 422 71 424 c 1,2,-1
EndSplineSet
EndChar

StartChar: section
Encoding: 117 167 275
Width: 1434
VWidth: 0
Flags: W
LayerCount: 2
Fore
SplineSet
201 334 m 1
 201 -14 l 1
 283 -55 420 -82 563 -82 c 0
 817 -82 1092 4 1092 254 c 0
 1092 285 1087 317 1079 354 c 1
 1231 369 1372 563 1372 764 c 0
 1372 1257 856 1151 856 1247 c 0
 856 1286 897 1298 965 1298 c 0
 1067 1298 1219 1278 1219 1278 c 1
 1219 1634 l 1
 1122 1655 1010 1669 899 1669 c 0
 627 1669 362 1581 362 1280 c 0
 362 1264 362 1248 364 1233 c 1
 228 1218 57 1067 57 854 c 0
 57 381 582 469 582 344 c 0
 582 297 535 291 479 291 c 0
 360 291 201 334 201 334 c 1
563 774 m 1
 522 793 469 807 469 854 c 0
 469 897 504 920 563 920 c 0
 662 920 870 844 879 836 c 1
 944 815 973 774 973 737 c 0
 973 696 942 686 901 686 c 0
 776 686 563 774 563 774 c 1
EndSplineSet
EndChar

StartChar: semicolon
Encoding: 42 59 276
Width: 778
VWidth: 0
Flags: W
LayerCount: 2
Fore
SplineSet
94 -336 m 1
 518 -336 702 -156 702 147 c 2
 702 551 l 1
 94 551 l 1
 94 129 l 1
 274 129 l 1
 274 129 274 -78 94 -78 c 1
 94 -336 l 1
432 1290 m 0
 242 1290 129 1137 129 1001 c 0
 129 872 203 756 379 756 c 0
 582 756 682 903 682 1042 c 0
 682 1167 596 1290 432 1290 c 0
EndSplineSet
EndChar

StartChar: seven
Encoding: 38 55 277
Width: 1759
VWidth: 0
Flags: W
LayerCount: 2
Fore
SplineSet
168 0 m 1
 1004 0 l 1
 1726 1477 l 1
 1726 1599 l 1
 98 1599 l 1
 98 1169 l 2
 98 1159 274 1137 305 1137 c 0
 439 1137 864 1151 958 1151 c 1
 958 1108 l 1
 168 0 l 1
EndSplineSet
EndChar

StartChar: six
Encoding: 37 54 278
Width: 1786
VWidth: 0
Flags: W
LayerCount: 2
Fore
SplineSet
965 1642 m 0
 457 1642 74 1315 74 727 c 0
 74 238 504 -37 958 -37 c 0
 1290 -37 1710 72 1710 506 c 0
 1710 889 1339 981 985 981 c 0
 897 981 805 967 735 948 c 1
 733 965 733 979 733 991 c 0
 733 1141 838 1208 952 1208 c 0
 1026 1208 1104 1165 1145 1085 c 1
 1145 1085 1554 1198 1647 1223 c 1
 1597 1497 1237 1642 965 1642 c 0
1032 313 m 0
 891 313 766 453 766 651 c 1
 1036 651 l 1
 1112 553 1139 455 1139 397 c 0
 1139 338 1083 313 1032 313 c 0
EndSplineSet
EndChar

StartChar: slash
Encoding: 30 47 279
Width: 1042
VWidth: 0
Flags: W
LayerCount: 2
Fore
SplineSet
1014 1597 m 1
 340 1597 l 1
 53 0 l 1
 584 0 l 1
 1014 1597 l 1
EndSplineSet
EndChar

StartChar: sterling
Encoding: 113 163 281
Width: 1954
VWidth: 0
Flags: W
LayerCount: 2
Fore
SplineSet
1860 70 m 1
 1823 506 l 1
 1759 475 1597 438 1477 438 c 0
 1358 438 1243 477 1124 477 c 0
 1042 477 952 461 872 444 c 1
 872 444 911 541 920 649 c 1
 1438 649 l 1
 1438 967 l 1
 946 967 l 1
 946 1126 1044 1206 1174 1206 c 0
 1257 1206 1335 1165 1362 1087 c 1
 1829 1249 l 1
 1829 1579 1395 1640 1180 1640 c 0
 727 1640 391 1464 336 997 c 1
 332 967 l 1
 70 967 l 1
 70 649 l 1
 315 649 l 1
 315 557 l 2
 315 360 174 207 59 131 c 1
 178 -37 l 1
 315 33 449 55 575 55 c 0
 897 55 1141 -37 1405 -37 c 0
 1546 -37 1692 -14 1860 70 c 1
EndSplineSet
EndChar

StartChar: t
Encoding: 99 116 282
Width: 1141
VWidth: 0
Flags: W
LayerCount: 2
Fore
SplineSet
921 1243 m 0,0,-1
69 926 m 1,1,-1
 183 926 l 1,2,-1
 183 406 l 2,3,-1
 183 127 392 -39 644 -39 c 0,6,-1
 796 -39 949 12 1064 90 c 1,9,-1
 1064 344 l 1,10,-1
 849 344 781 430 781 612 c 2,13,-1
 781 926 l 1,14,-1
 1064 926 l 1,15,-1
 1064 1243 l 1,16,-1
 781 1243 l 1,17,-1
 781 1640 l 1,18,-1
 183 1579 l 1,19,-1
 183 1243 l 1,20,-1
 69 1243 l 1,21,-1
 69 926 l 1,1,-1
EndSplineSet
EndChar

StartChar: thorn
Encoding: 204 254 285
Width: 1722
VWidth: 0
Flags: W
LayerCount: 2
Fore
SplineSet
102 -354 m 1
 680 -354 l 1
 680 -39 l 1
 745 -39 l 2
 1440 -39 1636 432 1636 657 c 0
 1636 975 1450 1260 1085 1260 c 0
 983 1260 807 1214 684 1096 c 1
 684 1597 l 1
 102 1597 l 1
 102 -354 l 1
973 844 m 0
 1044 844 1071 770 1071 707 c 0
 1071 539 915 336 780 336 c 2
 682 336 l 1
 682 713 l 1
 741 760 848 844 973 844 c 0
EndSplineSet
EndChar

StartChar: three
Encoding: 34 51 286
Width: 1853
VWidth: 0
Flags: W
LayerCount: 2
Fore
SplineSet
1761 524 m 0
 1761 858 1518 989 1212 1026 c 1
 1726 1417 l 1
 1726 1597 l 1
 184 1597 l 1
 184 1161 l 1
 788 1161 l 1
 704 1105 516 972 516 963 c 1
 637 752 l 1
 653 754 684 756 722 756 c 0
 854 756 1077 729 1077 567 c 0
 1077 489 1012 430 877 430 c 0
 674 430 469 500 317 600 c 1
 80 213 l 1
 344 6 702 -37 936 -37 c 0
 1311 -37 1761 72 1761 524 c 0
EndSplineSet
EndChar

StartChar: threesuperior
Encoding: 129 179 288
Width: 1518
VWidth: 0
Flags: W
LayerCount: 2
Fore
SplineSet
1425 420 m 0
 1425 686 1231 791 985 821 c 1
 1397 1135 l 1
 1397 1278 l 1
 164 1278 l 1
 164 930 l 1
 647 930 l 1
 453 795 l 1
 444 791 428 772 428 770 c 1
 526 602 l 1
 537 602 l 1
 550 603 571 605 593 605 c 0
 700 605 879 584 879 455 c 0
 879 391 825 344 717 344 c 0
 555 344 391 399 270 479 c 1
 80 170 l 1
 291 4 578 -29 764 -29 c 0
 1065 -29 1425 57 1425 420 c 0
EndSplineSet
EndChar

StartChar: tilde
Encoding: 321 732 289
Width: 1098
VWidth: 0
Flags: W
LayerCount: 2
Fore
SplineSet
602 680 m 0
305 989 m 0,1,2
 467 989 682 883 844 883 c 0,3,4
 979 883 1079 958 1079 1231 c 0,5,6
 1079 1239 1073 1247 1063 1247 c 0,7,8
 1040 1247 995 1186 920 1186 c 0,9,10
 778 1186 561 1290 393 1290 c 0,11,12
 252 1290 145 1217 145 946 c 0,13,14
 145 938 154 930 164 930 c 0,15,16
 184 930 231 989 305 989 c 0,1,2
EndSplineSet
EndChar

StartChar: trademark
Encoding: 322 8482 290
Width: 2699
VWidth: 0
Flags: W
LayerCount: 2
Fore
SplineSet
49 1235 m 1
 360 1235 l 1
 360 469 l 1
 803 469 l 1
 803 1235 l 1
 1116 1235 l 1
 1116 1599 l 1
 49 1599 l 1
 49 1235 l 1
1212 469 m 1
 1602 469 l 1
 1602 827 l 1
 1882 520 l 1
 2173 834 l 1
 2173 469 l 1
 2638 469 l 1
 2638 1599 l 1
 2482 1599 l 1
 1919 1087 l 1
 1370 1599 l 1
 1212 1599 l 1
 1212 469 l 1
EndSplineSet
EndChar

StartChar: two
Encoding: 33 50 291
Width: 1726
VWidth: 0
Flags: W
LayerCount: 2
Fore
SplineSet
190 0 m 1
 1626 0 l 1
 1626 479 l 1
 1118 479 l 1
 1327 641 1616 817 1616 1118 c 0
 1616 1470 1294 1640 936 1640 c 0
 602 1640 236 1493 68 1214 c 1
 303 877 l 1
 467 1051 651 1149 776 1149 c 0
 868 1149 922 1092 922 1014 c 0
 922 947 882 869 799 799 c 2
 190 289 l 1
 190 0 l 1
EndSplineSet
EndChar

StartChar: twosuperior
Encoding: 128 178 292
Width: 1413
VWidth: 0
Flags: W
LayerCount: 2
Fore
SplineSet
166 0 m 1
 1313 0 l 1
 1313 383 l 1
 907 383 l 1
 1075 512 1305 653 1305 895 c 0
 1305 1176 1049 1313 762 1313 c 0
 494 1313 201 1194 68 971 c 1
 256 700 l 1
 387 840 535 920 633 920 c 0
 707 920 750 872 750 811 c 0
 750 758 718 695 651 639 c 2
 166 231 l 1
 166 0 l 1
EndSplineSet
EndChar

StartChar: u
Encoding: 100 117 293
Width: 1605
VWidth: 0
Flags: W
HStem: -47 383<412.5 875>
LayerCount: 2
Fore
SplineSet
807 1241 m 0,0,-1
1311 0 m 0,1,-1
676 1243 m 1,2,-1
 78 1243 l 1,3,-1
 78 395 l 2,4,-1
 78 117 287 -47 538 -47 c 0,7,-1
 739 -47 944 43 1055 195 c 1,10,-1
 1198 0 l 1,11,-1
 1526 0 l 1,12,-1
 1526 1243 l 1,13,-1
 932 1243 l 1,14,-1
 932 467 l 2,15,-1
 932 389 915 336 835 336 c 0,18,-1
 753 336 676 408 676 664 c 2,21,-1
 676 1243 l 1,2,-1
EndSplineSet
EndChar

StartChar: underscore
Encoding: 78 95 300
Width: 1157
VWidth: 0
Flags: W
LayerCount: 2
Fore
SplineSet
123 -297 m 1
 1036 -297 l 1
 1036 0 l 1
 123 0 l 1
 123 -297 l 1
EndSplineSet
EndChar

StartChar: uni00AD
Encoding: 123 173 315
Width: 1036
VWidth: 0
Flags: W
LayerCount: 2
Fore
SplineSet
61 614 m 1
 975 614 l 1
 975 911 l 1
 61 911 l 1
 61 614 l 1
EndSplineSet
EndChar

StartChar: uni030F
Encoding: 344 783 335
Width: 1274
VWidth: 0
Flags: W
LayerCount: 2
Fore
SplineSet
795 680 m 0
115 1485 m 1,1,-1
 586 946 l 2,2,3
 623 903 657 883 682 883 c 0,4,5
 702 883 715 899 715 930 c 0,6,7
 715 946 713 963 707 985 c 2,8,-1
 563 1485 l 1,9,-1
 115 1485 l 1,1,-1
672 1485 m 1,10,-1
 1020 946 l 2,11,12
 1050 900 1079 877 1102 877 c 0,13,14
 1126 877 1143 903 1143 950 c 0,15,16
 1143 961 1143 973 1141 985 c 2,17,-1
 1079 1485 l 1,18,-1
 672 1485 l 1,10,-1
EndSplineSet
EndChar

StartChar: uni0311
Encoding: 345 785 336
Width: 1319
VWidth: 0
Flags: W
LayerCount: 2
Fore
SplineSet
659 680 m 0
1214 926 m 1,1,2
 1214 1190 1026 1450 659 1450 c 0,3,4
 291 1450 104 1192 104 926 c 1,5,-1
 473 926 l 1,6,7
 473 1036 537 1141 659 1141 c 0,8,9
 782 1141 844 1032 844 926 c 1,10,-1
 1214 926 l 1,1,2
EndSplineSet
EndChar

StartChar: uni0326
Encoding: 346 806 337
Width: 715
VWidth: 0
Flags: W
LayerCount: 2
Fore
SplineSet
355 0 m 0
53 -1022 m 1,1,2
 477 -1022 662 -842 662 -539 c 2,3,-1
 662 -135 l 1,4,-1
 53 -135 l 1,5,-1
 53 -557 l 1,6,-1
 233 -557 l 1,7,8
 233 -557 233 -764 53 -764 c 1,9,-1
 53 -1022 l 1,1,2
EndSplineSet
EndChar

StartChar: v
Encoding: 101 118 340
Width: 1517
VWidth: 0
Flags: W
LayerCount: 2
Fore
SplineSet
50 1243 m 1
 695 2 l 2
 708 -23 743 -37 775 -37 c 0
 809 -37 842 -23 854 2 c 2
 1467 1243 l 1
 990 1243 l 1
 934 1122 875 999 820 877 c 1
 635 1243 l 1
 50 1243 l 1
EndSplineSet
EndChar

StartChar: w
Encoding: 102 119 341
Width: 2040
VWidth: 0
Flags: HW
LayerCount: 2
Fore
SplineSet
495 -8 m 1
 661 -8 l 1
 1044 510 l 1
 1402 -8 l 1
 1568 -8 l 1
 1990 1243 l 1
 1535 1243 l 1
 1494 1112 1443 969 1402 838 c 1
 1116 1243 l 1
 1052 1243 l 1
 956 1110 843 963 745 829 c 1
 610 1243 l 1
 50 1243 l 1
 495 -8 l 1
EndSplineSet
EndChar

StartChar: x
Encoding: 103 120 342
Width: 1413
VWidth: 0
Flags: W
LayerCount: 2
Fore
SplineSet
599 1243 m 1
 32 1243 l 1
 378 645 l 1
 42 0 l 1
 542 0 l 1
 657 283 l 1
 798 0 l 1
 1396 0 l 1
 995 655 l 1
 1306 1243 l 1
 845 1243 l 1
 722 1010 l 1
 599 1243 l 1
EndSplineSet
EndChar

StartChar: y
Encoding: 104 121 343
Width: 1628
VWidth: 0
Flags: W
HStem: -385 383<194.171 715.5>
LayerCount: 2
Fore
SplineSet
846 1241 m 0,0,-1
1581 1243 m 1,1,-1
 1057 1243 l 1,2,-1
 856 762 l 1,3,-1
 641 1243 l 1,4,-1
 45 1243 l 1,5,-1
 559 197 l 1,6,-1
 565 176 569 158 569 139 c 0,9,-1
 569 61 512 -2 424 -2 c 0,12,-1
 336 -2 217 12 158 27 c 1,15,-1
 158 -328 l 1,16,-1
 248 -365 412 -385 571 -385 c 0,19,-1
 860 -385 1005 -188 1114 82 c 2,22,-1
 1581 1243 l 1,1,-1
EndSplineSet
EndChar

StartChar: yen
Encoding: 115 165 346
Width: 1739
VWidth: 0
Flags: W
LayerCount: 2
Fore
SplineSet
178 748 m 1
 465 748 l 1
 520 635 l 1
 178 635 l 1
 178 451 l 1
 541 451 l 1
 541 0 l 1
 1188 0 l 1
 1188 451 l 1
 1565 451 l 1
 1565 635 l 1
 1208 635 l 1
 1264 748 l 1
 1565 748 l 1
 1565 932 l 1
 1356 932 l 1
 1686 1597 l 1
 1090 1597 l 1
 926 1270 l 1
 766 1597 l 1
 53 1597 l 1
 377 932 l 1
 178 932 l 1
 178 748 l 1
EndSplineSet
EndChar

StartChar: z
Encoding: 105 122 347
Width: 1410
VWidth: 0
Flags: HW
LayerCount: 2
Fore
SplineSet
716 1243 m 0
55 68 m 1,1,-1
 55 0 l 1,2,-1
 1341 0 l 1,3,-1
 1341 356 l 1,4,-1
 857 356 l 1,5,-1
 1341 1151 l 1,6,-1
 1341 1243 l 1,7,-1
 102 1243 l 1,8,-1
 102 866 l 1,9,-1
 534 866 l 1,10,-1
 55 68 l 1,1,-1
EndSplineSet
EndChar

StartChar: zero
Encoding: 31 48 349
Width: 1792
VWidth: 0
Flags: W
LayerCount: 2
Fore
SplineSet
897 -37 m 0
 1382 -37 1716 322 1716 807 c 0
 1716 1305 1397 1642 897 1642 c 0
 397 1642 78 1305 78 807 c 0
 78 322 412 -37 897 -37 c 0
897 1157 m 0
 1071 1157 1075 915 1075 776 c 0
 1075 641 1051 455 897 455 c 0
 733 455 719 662 719 776 c 0
 719 915 723 1157 897 1157 c 0
EndSplineSet
EndChar

StartChar: a.sc
Encoding: 350 -1 350
Width: 1656
VWidth: 0
Flags: H
LayerCount: 2
Fore
SplineSet
1045 1554 m 0,0,-1
575 -0 m 1,1,-1
 617 123 l 1,2,-1
 953 123 l 1,3,-1
 1002 -0 l 1,4,-1
 1634 -0 l 1,5,-1
 971 1185 l 2,6,-1
 938 1243 874 1270 813 1270 c 0,9,-1
 745 1270 674 1237 644 1180 c 2,12,-1
 26 -0 l 1,13,-1
 575 -0 l 1,1,-1
788 706 m 1,14,-1
 907 370 l 1,15,-1
 655 370 l 1,16,-1
 788 706 l 1,14,-1
EndSplineSet
EndChar

StartChar: b.sc
Encoding: 351 -1 351
Width: 1572
VWidth: 0
Flags: H
LayerCount: 2
Fore
SplineSet
96 -24 m 1
 196 -30 658 -45 757 -45 c 0
 1058 -45 1507 -27 1507 336 c 0
 1507 572 1353 657 1203 701 c 1
 1346 763 1416 843 1416 969 c 0
 1416 1166 1252 1289 758 1289 c 0
 537 1289 96 1266 96 1266 c 1
 96 -24 l 1
901 456 m 0
 901 346 793 308 627 247 c 0
 613 242 599 236 585 231 c 1
 585 427 l 1
 640 453 750 521 822 521 c 0
 867 521 901 503 901 456 c 0
585 849 m 1
 590 852 702 926 774 926 c 0
 809 926 853 905 853 859 c 0
 853 754 718 698 585 647 c 1
 585 849 l 1
EndSplineSet
EndChar

StartChar: c.sc
Encoding: 352 -1 352
Width: 1295
VWidth: 0
Flags: H
LayerCount: 2
Fore
SplineSet
895 1554 m 0,0,-1
926 0 m 0,1,-1
1207 556 m 1,2,-1
 1015 438 953 432 905 432 c 0,5,-1
 824 432 781 485 781 575 c 0,8,-1
 781 711 917 821 1078 821 c 0,11,-1
 1111 821 1148 816 1183 805 c 1,14,-1
 1183 1269 l 1,15,-1
 1092 1305 953 1314 884 1314 c 0,18,-1
 390 1314 47 1014 47 577 c 0,21,-1
 47 165 422 -68 812 -68 c 0,24,-1
 953 -68 1086 -41 1207 11 c 1,27,-1
 1207 556 l 1,2,-1
EndSplineSet
EndChar

StartChar: d.sc
Encoding: 353 -1 353
Width: 1494
VWidth: 0
Flags: H
LayerCount: 2
Fore
SplineSet
836 1555 m 0,0,-1
96 -32 m 1,1,-1
 732 -32 l 2,2,-1
 1132 -32 1436 209 1436 619 c 0,5,-1
 1436 948 1235 1309 801 1309 c 0,8,-1
 566 1309 96 1268 96 1268 c 1,11,-1
 96 -32 l 1,1,-1
580 817 m 1,12,-1
 610 852 654 882 701 882 c 0,15,-1
 800 882 855 777 855 691 c 0,18,-1
 855 519 691 437 580 343 c 1,21,-1
 580 817 l 1,12,-1
EndSplineSet
EndChar

StartChar: e.sc
Encoding: 354 -1 354
Width: 1107
VWidth: 0
Flags: H
LayerCount: 2
Fore
SplineSet
705 1554 m 0,0,-1
96 -0 m 1,1,-1
 1019 -0 l 1,2,-1
 1019 360 l 1,3,-1
 580 360 l 1,4,-1
 580 478 l 1,5,-1
 990 478 l 1,6,-1
 990 783 l 1,7,-1
 580 783 l 1,8,-1
 580 885 l 1,9,-1
 991 885 l 1,10,-1
 991 1243 l 1,11,-1
 96 1243 l 1,12,-1
 96 -0 l 1,1,-1
EndSplineSet
EndChar

StartChar: f.sc
Encoding: 355 -1 355
Width: 1029
VWidth: 0
Flags: H
LayerCount: 2
Fore
SplineSet
96 -0 m 1
 580 -0 l 1
 580 437 l 1
 990 437 l 1
 990 776 l 1
 580 776 l 1
 580 891 l 1
 990 891 l 1
 990 1243 l 1
 96 1243 l 1
 96 -0 l 1
EndSplineSet
EndChar

StartChar: g.sc
Encoding: 356 -1 356
Width: 1438
VWidth: 0
Flags: H
LayerCount: 2
Fore
SplineSet
958 1554 m 0,0,-1
1356 601 m 1,1,-1
 1356 601 1354 600 956 600 c 1,4,-1
 956 523 956 472 954 439 c 1,7,-1
 936 432 912 430 888 430 c 0,10,-1
 780 430 714 498 714 594 c 0,13,-1
 714 718 835 857 1084 857 c 0,16,-1
 1149 857 1219 847 1295 827 c 1,19,-1
 1295 1257 l 1,20,-1
 1292 1257 1185 1311 962 1311 c 0,23,-1
 438 1311 49 1051 49 626 c 0,26,-1
 49 201 410 -68 890 -68 c 0,29,-1
 1064 -68 1356 -14 1356 -14 c 1,32,-1
 1356 601 l 1,1,-1
EndSplineSet
EndChar

StartChar: h.sc
Encoding: 357 -1 357
Width: 1418
VWidth: 0
Flags: H
LayerCount: 2
Fore
SplineSet
838 815 m 1
 580 794 l 1
 580 1243 l 1
 96 1243 l 1
 96 -0 l 1
 580 -0 l 1
 580 437 l 1
 838 459 l 1
 838 -0 l 1
 1323 -0 l 1
 1323 1243 l 1
 838 1243 l 1
 838 815 l 1
EndSplineSet
EndChar

StartChar: i.sc
Encoding: 358 -1 358
Width: 756
VWidth: 0
Flags: H
LayerCount: 2
Fore
SplineSet
442 1554 m 0,0,-1
442 0 m 0,1,-1
663 1243 m 1,2,-1
 96 1243 l 1,3,-1
 96 -0 l 1,4,-1
 663 -0 l 1,5,-1
 663 1243 l 1,2,-1
EndSplineSet
EndChar

StartChar: j.sc
Encoding: 359 -1 359
Width: 1229
VWidth: 0
Flags: H
LayerCount: 2
Fore
SplineSet
1106 1554 m 0,0,-1
566 -64 m 0,1,-1
 896 -64 1153 108 1153 644 c 2,4,-1
 1153 1276 l 1,5,-1
 657 1276 l 1,6,-1
 657 537 l 2,7,-1
 657 443 602 384 546 384 c 0,10,-1
 492 384 443 432 443 532 c 2,13,-1
 443 652 l 1,14,-1
 11 593 l 1,15,-1
 11 461 l 2,16,-1
 11 94 240 -64 566 -64 c 0,1,-1
EndSplineSet
EndChar

StartChar: k.sc
Encoding: 360 -1 360
Width: 1522
VWidth: 0
Flags: H
LayerCount: 2
Fore
SplineSet
96 1243 m 1
 96 -0 l 1
 599 -0 l 1
 599 389 l 1
 628 440 l 1
 888 -0 l 1
 1456 -0 l 1
 992 719 l 1
 1393 1243 l 1
 888 1243 l 1
 589 861 l 1
 589 1243 l 1
 96 1243 l 1
EndSplineSet
EndChar

StartChar: l.sc
Encoding: 361 -1 361
Width: 1021
VWidth: 0
Flags: H
LayerCount: 2
Fore
SplineSet
445 1555 m 0,0,-1
96 -0 m 1,1,-1
 998 -0 l 1,2,-1
 998 374 l 1,3,-1
 580 374 l 1,4,-1
 580 1243 l 1,5,-1
 96 1243 l 1,6,-1
 96 -0 l 1,1,-1
EndSplineSet
EndChar

StartChar: m.sc
Encoding: 362 -1 362
Width: 1759
VWidth: 0
Flags: H
LayerCount: 2
Fore
SplineSet
96 -0 m 1
 526 -0 l 1
 526 394 l 1
 835 54 l 1
 1152 403 l 1
 1152 -0 l 1
 1664 -0 l 1
 1664 1243 l 1
 1492 1243 l 1
 875 679 l 1
 274 1243 l 1
 96 1243 l 1
 96 -0 l 1
EndSplineSet
EndChar

StartChar: n.sc
Encoding: 363 -1 363
Width: 1434
VWidth: 0
Flags: H
LayerCount: 2
Fore
SplineSet
961 1554 m 0,0,-1
96 -0 m 1,1,-1
 532 -0 l 1,2,-1
 532 427 l 1,3,-1
 1171 -0 l 1,4,-1
 1339 -0 l 1,5,-1
 1339 1243 l 1,6,-1
 901 1243 l 1,7,-1
 901 759 l 1,8,-1
 222 1243 l 1,9,-1
 96 1243 l 1,10,-1
 96 -0 l 1,1,-1
EndSplineSet
EndChar

StartChar: o.sc
Encoding: 364 -1 364
Width: 1681
VWidth: 0
Flags: H
LayerCount: 2
Fore
SplineSet
961 1554 m 0,0,-1
924 869 m 0,1,-1
 1015 869 1050 822 1050 759 c 0,4,-1
 1050 623 890 409 780 409 c 0,7,-1
 686 409 650 457 650 522 c 0,10,-1
 650 658 811 869 924 869 c 0,1,-1
832 -66 m 0,13,-1
 1250 -66 1623 199 1623 618 c 0,16,-1
 1623 1050 1275 1310 832 1310 c 0,19,-1
 409 1310 58 1036 58 625 c 0,22,-1
 58 206 438 -66 832 -66 c 0,13,-1
EndSplineSet
EndChar

StartChar: p.sc
Encoding: 365 -1 365
Width: 1438
VWidth: 0
Flags: H
LayerCount: 2
Fore
SplineSet
753 1306 m 0
 568 1306 353 1289 96 1261 c 1
 96 -29 l 1
 604 -29 l 1
 604 196 l 1
 664 196 711 193 757 193 c 0
 1115 193 1404 431 1404 772 c 0
 1404 1153 1213 1306 753 1306 c 0
797 926 m 0
 853 926 885 881 885 829 c 0
 885 708 797 635 692 584 c 2
 601 540 l 1
 601 833 l 1
 601 833 724 926 797 926 c 0
EndSplineSet
EndChar

StartChar: q.sc
Encoding: 366 -1 366
Width: 1738
VWidth: 0
Flags: H
LayerCount: 2
Fore
SplineSet
821 -61 m 0
 982 -61 1137 -16 1266 67 c 1
 1383 -11 1507 -61 1640 -61 c 0
 1665 -61 1694 -60 1721 -56 c 1
 1721 -56 1720 347 1718 347 c 0
 1675 347 1618 359 1553 383 c 1
 1597 463 1621 554 1621 654 c 0
 1621 1064 1274 1310 830 1310 c 0
 408 1310 56 1036 56 627 c 0
 56 209 433 -61 821 -61 c 0
922 869 m 0
 1013 869 1048 823 1048 760 c 0
 1048 710 1025 649 992 592 c 1
 941 619 889 647 841 675 c 1
 756 565 l 1
 793 527 831 488 869 450 c 1
 838 427 807 413 779 413 c 0
 685 413 648 460 648 525 c 0
 648 660 809 869 922 869 c 0
EndSplineSet
EndChar

StartChar: r.sc
Encoding: 367 -1 367
Width: 1571
VWidth: 0
Flags: H
LayerCount: 2
Fore
SplineSet
815 1554 m 0,0,-1
601 863 m 1,1,-1
 705 905 l 2,2,-1
 740 920 772 931 802 931 c 0,5,-1
 849 931 884 905 884 821 c 0,8,-1
 884 721 802 633 601 558 c 1,11,-1
 601 863 l 1,1,-1
823 -29 m 1,12,-1
 1517 -29 l 1,13,-1
 1137 413 l 1,14,-1
 1305 503 1425 641 1425 834 c 0,17,-1
 1425 1055 1267 1305 840 1305 c 0,20,-1
 583 1305 96 1264 96 1264 c 1,23,-1
 96 -29 l 1,24,-1
 604 -29 l 1,25,-1
 604 332 l 1,26,-1
 823 -29 l 1,12,-1
EndSplineSet
EndChar

StartChar: s.sc
Encoding: 368 -1 368
Width: 1125
VWidth: 0
Flags: H
LayerCount: 2
Fore
SplineSet
717 1554 m 0,0,-1
695 0 m 0,1,-1
78 435 m 1,2,-1
 78 39 l 1,3,-1
 78 39 171 -62 542 -62 c 0,6,-1
 865 -62 1056 97 1056 340 c 0,9,-1
 1056 612 875 696 656 791 c 0,12,-1
 627 803 603 829 603 848 c 0,15,-1
 603 871 627 890 674 890 c 0,18,-1
 778 890 979 850 979 850 c 1,21,-1
 979 1256 l 1,22,-1
 951 1265 789 1308 617 1308 c 0,25,-1
 345 1308 75 1204 75 912 c 0,28,-1
 75 555 504 525 504 408 c 0,31,-1
 504 371 472 361 426 361 c 0,34,-1
 321 361 91 432 78 435 c 1,2,-1
EndSplineSet
EndChar

StartChar: t.sc
Encoding: 369 -1 369
Width: 1264
VWidth: 0
Flags: H
LayerCount: 2
Fore
SplineSet
818 1555 m 0,0,-1
44 840 m 1,1,-1
 391 840 l 1,2,-1
 391 -0 l 1,3,-1
 875 -0 l 1,4,-1
 875 840 l 1,5,-1
 1221 840 l 1,6,-1
 1221 1243 l 1,7,-1
 44 1243 l 1,8,-1
 44 840 l 1,1,-1
EndSplineSet
EndChar

StartChar: u.sc
Encoding: 370 -1 370
Width: 1357
VWidth: 0
Flags: H
LayerCount: 2
Fore
SplineSet
912 1554 m 0,0,-1
902 0 m 0,1,-1
82 490 m 2,2,-1
 82 114 296 -64 701 -64 c 0,5,-1
 1072 -64 1274 114 1274 490 c 2,8,-1
 1274 1276 l 1,9,-1
 844 1276 l 1,10,-1
 844 546 l 2,11,-1
 844 457 805 387 709 387 c 0,14,-1
 613 387 573 454 573 543 c 2,17,-1
 573 1276 l 1,18,-1
 82 1276 l 1,19,-1
 82 490 l 2,2,-1
EndSplineSet
EndChar

StartChar: v.sc
Encoding: 371 -1 371
Width: 1434
VWidth: 0
Flags: H
LayerCount: 2
Fore
SplineSet
19 1243 m 1
 663 2 l 2
 676 -24 703 -37 733 -37 c 0
 761 -37 791 -22 803 2 c 2
 1414 1243 l 1
 958 1243 l 1
 778 853 l 1
 584 1243 l 1
 19 1243 l 1
EndSplineSet
EndChar

StartChar: w.sc
Encoding: 372 -1 372
Width: 2149
VWidth: 0
Flags: H
LayerCount: 2
Fore
SplineSet
49 1243 m 1
 486 35 l 2
 506 -20 542 -43 581 -43 c 0
 619 -43 659 -17 690 24 c 2
 1065 528 l 1
 1440 26 l 2
 1475 -21 1518 -46 1559 -46 c 0
 1601 -46 1641 -19 1659 32 c 2
 2097 1243 l 1
 1576 1243 l 1
 1436 805 l 1
 1146 1216 l 2
 1126 1245 1116 1250 1103 1250 c 0
 1089 1250 1081 1244 1060 1216 c 2
 749 800 l 1
 607 1243 l 1
 49 1243 l 1
EndSplineSet
EndChar

StartChar: x.sc
Encoding: 373 -1 373
Width: 1496
VWidth: 0
Flags: H
LayerCount: 2
Fore
SplineSet
856 -0 m 1
 1430 -0 l 1
 1027 658 l 1
 1352 1243 l 1
 917 1243 l 1
 771 995 l 1
 633 1243 l 1
 75 1243 l 1
 441 647 l 1
 102 -0 l 1
 566 -0 l 1
 707 284 l 1
 856 -0 l 1
EndSplineSet
EndChar

StartChar: y.sc
Encoding: 374 -1 374
Width: 1336
VWidth: 0
Flags: H
LayerCount: 2
Fore
SplineSet
915 1554 m 0,0,-1
412 -0 m 1,1,-1
 917 -0 l 1,2,-1
 917 485 l 1,3,-1
 1303 1243 l 1,4,-1
 840 1243 l 1,5,-1
 712 989 l 1,6,-1
 588 1243 l 1,7,-1
 33 1243 l 1,8,-1
 412 485 l 1,9,-1
 412 -0 l 1,1,-1
EndSplineSet
EndChar

StartChar: z.sc
Encoding: 375 -1 375
Width: 1436
VWidth: 0
Flags: H
LayerCount: 2
Fore
SplineSet
948 1554 m 0,0,-1
85 71 m 1,1,-1
 85 -0 l 1,2,-1
 1344 -0 l 1,3,-1
 1344 356 l 1,4,-1
 864 356 l 1,5,-1
 1344 1148 l 1,6,-1
 1344 1243 l 1,7,-1
 132 1243 l 1,8,-1
 132 867 l 1,9,-1
 561 867 l 1,10,-1
 85 71 l 1,1,-1
EndSplineSet
EndChar

StartChar: and
Encoding: 376 -1 376
Width: 3602
VWidth: 127
Flags: W
HStem: 883 292<2941.52 3142.41>
VStem: 3203 414<546.354 819.842>
LayerCount: 2
Fore
SplineSet
2545 102 m 1
 3054 102 l 2
 3374 102 3617 295 3617 623 c 0
 3617 886 3456 1175 3109 1175 c 0
 2921 1175 2545 1142 2545 1142 c 1
 2545 102 l 1
2933 831 m 1
 2962 859 3003.08 883 3049 883 c 0
 3147.11 883 3203 771.549 3203 680 c 0
 3203 517.18 3042.23 440.489 2933 352 c 1
 2933 831 l 1
1334 128 m 1
 1683 128 l 1
 1683 469 l 1
 2194 128 l 1
 2329 128 l 1
 2329 1122 l 1
 1978 1122 l 1
 1978 735 l 1
 1435 1122 l 1
 1334 1122 l 1
 1334 128 l 1
403 128 m 1
 437 226 l 1
 705 226 l 1
 745 128 l 1
 1250 128 l 1
 720 1076 l 2
 694 1122 642 1144 593 1144 c 0
 539 1144 482 1118 458 1072 c 2
 -36 128 l 1
 403 128 l 1
573 692 m 1
 669 424 l 1
 467 424 l 1
 573 692 l 1
EndSplineSet
LCarets2: 2 1201 1201 
Ligature2: "and" a n d
EndChar
